<svg id="Слой_1" data-name="Слой 1" xmlns="http://www.w3.org/2000/svg" viewBox="0 0 326.76 383.86"><defs><style>.cls-1{fill:#060509}.cls-2{fill:#9e60ef}.cls-3{fill:#7d39d6}.cls-4{fill:#e3e3e3}</style></defs><path class="cls-1" d="M197.05 423.61a48.94 48.94 0 01-5.24-4c-3.36-3.31-4.13-7.57-3.74-12.09.19-2.06-.45-2.7-2.64-2.75-8.93-.22-13.86-5.5-13.88-14.53v-1.5c.37-3.86.4-6.63-5.13-7.11-5.84-.51-9.56-6-9.82-12-.09-2.25-.06-4.5 0-6.75q.08-11.82 11.52-14.22c.93-.2 2 .12 2-1.47-.22-6.57.8-13.27-2.1-19.55-2.8-6-7.48-10-13.38-13-26.43-13.36-46.12-33.39-58.28-60.46C66.87 188.7 98.76 112.17 166 86.67a124.19 124.19 0 01137.34 34.6c22.3 25.73 33.03 55.73 30.52 89.63-3.45 46.66-26.61 81.1-67.86 103.2-8.19 4.38-14.31 9.86-16.08 19.27-.86 4.57-.17 9.21-.42 13.81-.08 1.55 1 1.33 1.93 1.53 7.68 1.57 11.57 6.29 11.57 14.17v6.37c-.22 7.19-5.19 12.65-12.34 13-2.57.13-2.8 1.1-2.66 3.1.12 1.74 0 3.49 0 5.24 0 8.72-5.07 13.95-13.83 14.23-1.71.06-2.93.07-2.68 2.31.86 7.89-2.58 13.29-9.73 16.47zM177.2 95a7.87 7.87 0 00-4.93 1.58h-.1a37.46 37.46 0 00-13 5.67 99.53 99.53 0 00-32.07 23.81c-27.72 31-36.65 66.78-26.28 106.9 6.67 25.83 21.62 46.51 43.21 62.2 4.17 3 8.1 6.56 13 8.41a36.58 36.58 0 0121.31 19.74c3.19 6.95 3.12 14.3 2.92 21.66-.07 2.6.36 3.84 3.4 3.7 5.48-.27 11-.2 16.47-.05 2.37.06 3-.84 3-3-.1-6.11-.08-12.23 0-18.35.05-4.54 2.34-7.22 5.9-7.11s5.48 2.64 5.54 7.09c.08 5.12 0 10.24 0 15.36 0 6.24 0 6.24 6.23 5.87 2.12.05 4.24.21 6.35.13 3.21-.13 7.28 1.38 9.41-.62s.65-6.16.72-9.35c.32-15.36 7.08-26.7 20.91-33.54a112.83 112.83 0 0049.44-46.94c11.32-20.2 15.81-42 13.85-65.15a112.4 112.4 0 00-57.35-88.54c-9.82-5.44-20-10-31.3-11.57-1.12-.88-2.48-.6-3.74-.77-2.71-1.56-5.8-1.41-8.73-1.66-10.68-.9-21.36-1.25-31.87 1.6l-.74.12A30.24 30.24 0 00177.48 95zm32.59 265v-.1h-38.2c-1.52 0-3.27-.48-3.76 2-1.5 7.43-.15 9.2 7.33 9.27h1.49c4.13.19 6.08 2.14 6.15 6.33.06 4 .23 8-.05 12-.24 3.38 1 4.27 4.25 4.23 14-.18 28-.09 41.94-.15 8.62 0 7.58 1.24 7.85-7.76.1-3-1.08-3.39-3.61-3.36-9.36.1-18.73 0-28.09 0-4.58 0-7.28-2.12-7.29-5.62s2.59-5.62 7.29-5.63q19.85-.08 39.69-.07c8 0 6.71.35 7-7.13.11-3.21-1.11-4-4.15-4-12.63.06-25.23-.01-37.84-.01zm-.09 44.9c-2.37 0-4.74.11-7.1 0-2.19-.13-3.5.12-3.33 2.9.16 2.51-.15 4.74 3.51 4.58 4.35-.19 8.73-.15 13.08 0 2.95.09 4.43-.46 4.52-4 .1-3.78-1.84-3.56-4.33-3.45-2.11.07-4.23-.04-6.35-.04zM212 39.75c2.83 2.14 3.64 5 3.43 8.45-.22 3.73.06 7.48-.16 11.21s-2.34 5.82-5.51 5.82-5.38-2.13-5.54-5.82c-.19-4.6 0-9.22-.1-13.83 0-2.67 1.8-4.15 3.38-5.83zm148.76 158.62c2.36 0 4.73-.16 7.07 0 3.07.26 5.09 1.89 5.33 5.15s-1.6 5.63-4.94 5.82a149.57 149.57 0 01-15.27.07 5.52 5.52 0 010-11c2.59-.22 5.21 0 7.82 0zM59 198.44c2.48 0 5-.15 7.45 0 3.39.27 5.47 2.46 5.34 5.49s-1.85 5.3-5 5.44c-5.2.23-10.43.23-15.63-.06-3.2-.17-4.81-2.47-4.74-5.61s2-5 5.13-5.3c2.47-.22 5-.05 7.45-.05zM98.92 321c-2.89.17-4.53-.89-5.59-2.72a4.84 4.84 0 01.16-5.64 78.84 78.84 0 0112.1-12c2-1.58 4.57-1.1 6.48.75s2.69 4.22 1.13 6.4a69.4 69.4 0 01-12.46 12.65 3.91 3.91 0 01-1.82.56zm212.4-21.14a5.86 5.86 0 014.31 2c3.1 3.06 6.23 6.1 9.24 9.24 2.62 2.73 2.76 6.05.51 8.34s-5.72 2.22-8.58-.56c-3.22-3.13-6.43-6.27-9.52-9.53a5.23 5.23 0 01-1-6.21 5.49 5.49 0 015.04-3.28zM113.83 101.79a5.53 5.53 0 01-2.77 5.43c-2 1.24-4.24 1.28-5.9-.27-4-3.71-7.93-7.52-11.54-11.59-1.81-2.06-1.35-4.7.54-6.8s4.62-2.59 6.71-1a70.31 70.31 0 0112.28 12.28 5.12 5.12 0 01.68 1.95zM311.7 108a5.53 5.53 0 01-5.3-3 4.56 4.56 0 01.34-5.6c3.72-4 7.48-8 11.56-11.63 2-1.78 4.82-1.4 6.86.49s2.71 4.35 1.16 6.46a67.24 67.24 0 01-12.59 12.69 4.9 4.9 0 01-2.03.59z" transform="translate(-46.42 -39.75)"/><path class="cls-2" d="M221.77 348.49c-6.25.37-6.24.37-6.23-5.87 0-5.12.05-10.24 0-15.36-.06-4.45-2.11-7-5.54-7.09s-5.85 2.57-5.9 7.11c-.07 6.12-.09 12.24 0 18.35 0 2.2-.58 3.1-3 3-5.49-.15-11-.22-16.47.05-3 .14-3.47-1.1-3.4-3.7.2-7.36.27-14.71-2.92-21.66a36.58 36.58 0 00-21.31-19.7c-4.93-1.85-8.86-5.38-13-8.41-21.59-15.69-36.54-36.37-43.21-62.2-10.37-40.12-1.44-75.92 26.28-106.9a99.53 99.53 0 0132.07-23.81c4.36 1.87 6.4-3.12 10.09-3.51.81-.09 3-.06 2.94-2.16h6.73a8.74 8.74 0 01-1.7-1.63h.28c3.89 1 7.17-1.72 10.89-1.79.12 0 .23-.65.35-1l.74-.12c5.4 1 10.54-1 15.82-1.45 8.37-.72 16.47 2 24.78 1.51 1.26.17 2.62-.11 3.74.77 6.27 3.65 12.74 6.93 18.83 10.92a128.77 128.77 0 0117.18 13.66c.86.8 3.28 1.92.5 3.47-5.18-3.11-10-6.85-15.54-9.32-.75-3-2.89-3.29-5.44-2.7a.64.64 0 01-.62-.23c-1.17-1.89-3.19-2.28-5.08-2.92a127.34 127.34 0 00-14.42-3.65 65.64 65.64 0 00-13.38-.92h-2.62c-7.1 0-10 1.65-10.76 6s1.23 6.77 8.06 9.34C238.77 127.34 256 153.2 255 183.36a61.4 61.4 0 01-9.15 31.13l-.5.91v.07c-3.48-.62-2.21 1.94-2.37 3.54l-.63.82c-.74-.14-1.8-.35-2 .39-1.06 3.45-4.17 5.12-6.33 7.61-1 1.12-2.17 2.07-2.28 3.71-1.89 1.55-3.71 3.2-5.68 4.63-22 15.88-54 16.22-76.35 1a68.52 68.52 0 01-26.92-35.23c-1.67-4.83-4.84-7-8.86-6.24-3.66.67-6 3.95-5.9 8.73a99.93 99.93 0 0022.55 62.59 102 102 0 00112.3 32.61c8.75-3 16.7-7.5 24.74-11.89 2.83 1.23-.05 1.93-.41 2.34-7.93 8.78-17.84 14.81-28.32 20a30.29 30.29 0 00-14.85 15.42c-3.47 7.5-2.27 15.29-2.27 22.99zM182.26 169l-1.11.45c-1.06.3-.54.59-.47 1.72l-.08.09c-2.21-.33-3.22.61-3 2.85l-.08.09c-1-.05-2 0-2.17 1.34-3.67.63-10.63-1.34-14.1-.14a6.49 6.49 0 00-4.68 6.88c.16 3.36 2.09 5.49 5.2 6.61 2.11.76 4.22 1.51 6.35 2.2a18.14 18.14 0 0112.4 12.33 69.26 69.26 0 002.45 7.06c1.25 2.78 3.36 4.64 6.65 4.55a6.64 6.64 0 006.4-4.33 48.78 48.78 0 001.85-5.25c2.08-7.54 6.46-12.77 14.31-14.7a39.82 39.82 0 005.25-1.93 7.82 7.82 0 004.9-7.21c.22-3.41-1.94-5.45-5.07-6.52-1.89-.64-3.74-1.4-5.66-1.95a18.13 18.13 0 01-12.82-12c-.87-2.46-1.66-4.95-2.61-7.38a6.64 6.64 0 00-6.91-4.65c-3.46.12-5.48 2-6.6 5.13-1 2.81 1.82 9.66.81 12.48-1.47.28-1.35 1.28-1.21 2.28zm31.22-77.32V92h1.65v-.29zm-7.33.13a1.25 1.25 0 00-1.72 0 1.25 1.25 0 001.72.04z" transform="translate(-46.42 -39.75)"/><path class="cls-3" d="M221.77 348.49c0-7.7-1.2-15.48 2.1-22.92a30.29 30.29 0 0114.85-15.42C249.2 305 259.11 299 267 290.19c.36-.41 3.24-1.11.41-2.34.47-1.26 1.61-1.8 2.6-2.55 25.8-19.55 40-45.47 41.55-77.82a95.19 95.19 0 00-12.27-52.23c-5-8.85-10.43-17.11-17.68-24.15-3.63-3.54-7.55-6.77-11.34-10.14 2.78-1.55.36-2.67-.5-3.47a128.77 128.77 0 00-17.18-13.66c-6.09-4-12.56-7.27-18.83-10.92 11.28 1.55 21.48 6.13 31.3 11.57A112.4 112.4 0 01322.45 193c2 23.19-2.53 44.95-13.85 65.15a112.83 112.83 0 01-49.44 46.94c-13.83 6.84-20.59 18.18-20.91 33.54-.07 3.19 1.48 7.3-.72 9.35s-6.2.49-9.41.62c-2.12.1-4.23-.06-6.35-.11z" transform="translate(-46.42 -39.75)"/><path class="cls-4" d="M209.79 360c12.61 0 25.21.08 37.82-.06 3 0 4.26.79 4.15 4-.27 7.48 1.05 7.13-7 7.13q-19.84 0-39.69.07c-4.7 0-7.3 2.06-7.29 5.63s2.71 5.6 7.29 5.62c9.36 0 18.73.13 28.09 0 2.53 0 3.71.31 3.61 3.36-.27 9 .77 7.73-7.85 7.76-14 .06-28 0-41.94.15-3.25 0-4.49-.85-4.25-4.23.28-4 .11-8 .05-12-.07-4.19-2-6.14-6.15-6.33h-1.49c-7.48-.07-8.83-1.84-7.33-9.27.49-2.43 2.24-1.94 3.76-2h38.2z" transform="translate(-46.42 -39.75)"/><path class="cls-2" d="M209.7 404.89c2.12 0 4.24.07 6.35 0 2.49-.11 4.43-.33 4.33 3.45-.09 3.57-1.57 4.12-4.52 4-4.35-.15-8.73-.19-13.08 0-3.66.16-3.35-2.07-3.51-4.58-.17-2.78 1.14-3 3.33-2.9 2.36.15 4.73 0 7.1 0z" transform="translate(-46.42 -39.75)"/><path class="cls-3" d="M230.06 92.14c-8.31.45-16.41-2.23-24.78-1.51-5.28.46-10.42 2.5-15.82 1.45 10.51-2.85 21.19-2.5 31.87-1.6 2.93.25 6.02.1 8.73 1.66zm-57.89 4.49c.08 2.1-2.13 2.07-2.94 2.16-3.69.39-5.73 5.38-10.09 3.51a37.46 37.46 0 0113.03-5.67zm16.55-4.43c-.12.34-.23 1-.35 1-3.72.07-7 2.81-10.89 1.79a30.24 30.24 0 0111.24-2.79zM177.2 95a8.74 8.74 0 001.7 1.58h-6.64A7.92 7.92 0 01177.2 95z" transform="translate(-46.42 -39.75)"/><path class="cls-1" d="M270.31 121c3.79 3.37 7.71 6.6 11.34 10.14 7.25 7 12.71 15.3 17.68 24.15a95.19 95.19 0 0112.27 52.23c-1.58 32.35-15.75 58.27-41.55 77.82-1 .75-2.13 1.29-2.6 2.55-8 4.39-16 8.92-24.74 11.89a102 102 0 01-112.3-32.61 99.93 99.93 0 01-22.55-62.59c-.08-4.78 2.24-8.06 5.9-8.73 4-.74 7.19 1.41 8.86 6.24a68.52 68.52 0 0026.92 35.23c22.39 15.2 54.32 14.86 76.35-1 2-1.43 3.79-3.08 5.68-4.63a31.93 31.93 0 0010.64-11.71l.63-.82a6 6 0 002.37-3.54v-.07l.5-.91a61.4 61.4 0 009.29-31.28c1-30.16-16.19-56-44.45-66.7-6.83-2.57-8.8-4.86-8.06-9.34s3.66-6 10.76-6h2.62c5.13.83 10.26 1.73 15.41 2.46 6.07.87 11.57 3.63 17.47 5a.64.64 0 00.62.23c1.5 1.53 3.53 2 5.44 2.7 5.52 2.4 10.32 6.14 15.5 9.29zM123.3 229a90.22 90.22 0 00112.66 61c44.8-13.51 72.26-59.38 62.75-104.8-4.86-23.21-17-41.83-36.17-55.77-8.13-5.92-16.91-10.65-27.1-12.47 15.64 12.93 26 29 29.59 48.91s.41 39.1-10.67 56.37c-14.82 23.11-36.08 35.9-63.54 37.3s-49.58-9.93-67.52-30.54z" transform="translate(-46.42 -39.75)"/><path class="cls-1" d="M182.54 155.49a8.22 8.22 0 01.78-2.64 6.54 6.54 0 016-3.69 6.64 6.64 0 016.91 4.65c3.25 9.29 4.85 16.29 15.43 19.37 4.32 1.57 11.18 2.56 10.73 8.47a7.82 7.82 0 01-4.9 7.21 39.82 39.82 0 01-5.25 1.93c-7.85 1.93-12.23 7.16-14.31 14.7a48.78 48.78 0 01-1.85 5.25 6.64 6.64 0 01-6.4 4.33c-6.4.21-7.48-6.9-9.1-11.61-3.18-9.86-9.92-11.54-18.75-14.53-6.52-1.88-7.21-11.4-.52-13.49 12-3.08 19.69-9.32 21.23-19.95zM203.13 182a31 31 0 01-13.57-13.37 32.08 32.08 0 01-13.36 13.47 30.64 30.64 0 0113.36 13.34A30.93 30.93 0 01203.13 182z" transform="translate(-46.42 -39.75)"/><path class="cls-3" d="M248.71 108.71c-5.9-1.4-11.4-4.16-17.47-5-5.15-.73-10.28-1.63-15.41-2.46a65.64 65.64 0 0113.38.92 127.34 127.34 0 0114.42 3.65c1.89.61 3.91 1 5.08 2.89zm-6.5 111.21a31.93 31.93 0 01-10.64 11.71c.11-1.64 1.3-2.59 2.28-3.71 2.16-2.49 5.27-4.16 6.33-7.61.23-.74 1.29-.53 2.03-.39zm12.56-108.28c-1.91-.71-3.94-1.17-5.44-2.7 2.55-.59 4.67-.35 5.44 2.7zm-9.49 103.83a6 6 0 01-2.37 3.54c.16-1.6-1.11-4.16 2.37-3.54zm-31.8-123.75h1.64V92h-1.65zm-7.33.13a1.25 1.25 0 01-1.72 0 1.25 1.25 0 011.72 0zm39.66 122.64l-.5.91zm-2.92 4.56l-.63.82z" transform="translate(-46.42 -39.75)"/><path d="M123.3 229c17.94 20.57 40.06 32 67.52 30.56s48.72-14.19 63.54-37.3C265.44 205 268.63 186 265 165.93S251.08 130 235.44 117c10.19 1.82 19 6.55 27.1 12.47 19.17 13.94 31.31 32.56 36.17 55.77 9.51 45.42-17.95 91.29-62.75 104.8A90.22 90.22 0 01123.3 229z" transform="translate(-46.42 -39.75)" fill="#fae06e"/><path class="cls-4" d="M203.13 182a30.93 30.93 0 00-13.57 13.44 30.64 30.64 0 00-13.36-13.34 32.08 32.08 0 0013.36-13.47A31 31 0 00203.13 182z" transform="translate(-46.42 -39.75)"/></svg>