<svg width="100" height="100" fill="none" xmlns="http://www.w3.org/2000/svg"><g clip-path="url(#clip0)"><path d="M50.323 22.096C78.591 18.987 87.777 1.105 87.807 1.105a1.82 1.82 0 013.368.36c9.396 31.866 4.268 53.836-6.517 66.87a40.572 40.572 0 01-15.583 11.626 38.823 38.823 0 01-17.692 2.998c-11.585-.81-22.16-6.997-27.069-18.082a30.125 30.125 0 01-2.409-8.926 30.688 30.688 0 013.459-17.892 29.687 29.687 0 0114.264-13.114 35.92 35.92 0 0110.695-2.85z" fill="#45B549"/><path d="M87.607 1.775a1.82 1.82 0 113.618.31c0 .09-1.59 20.99-21.99 42.141l-.19.2a106.04 106.04 0 01-15.703 13.255l12.254 2.279a1.819 1.819 0 01-.61 3.578l-15.993-2.999C34.41 69.775 9.691 78.302 7.531 98.423a1.82 1.82 0 01-3.618-.36c2.579-24.12 27.088-30.327 43.621-40.872l.23-.15a105.058 105.058 0 0018.222-14.604l-1.45-14.344a1.82 1.82 0 113.62-.36l1.099 11.136C86.257 19.777 87.597 1.855 87.607 1.775z" fill="#009549"/></g><defs><clipPath id="clip0"><path fill="#fff" d="M0 0h100v100H0z"/></clipPath></defs></svg>