<svg width="86" height="100" fill="none" xmlns="http://www.w3.org/2000/svg"><path d="M81.277 66.78c-2.688 7.284-6.753 13.618-12.084 18.823-6.067 5.925-14.012 10.634-23.615 13.992a7.277 7.277 0 01-2.294.405h-.087c-.47 0-.94-.047-1.408-.139a7.609 7.609 0 01-.969-.264c-9.613-3.353-17.569-8.059-23.642-13.984-5.333-5.205-9.397-11.535-12.082-18.82C.216 53.548.494 38.958.717 27.233l.004-.18c.045-.968.074-1.985.09-3.108.082-5.514 4.466-10.075 9.98-10.383 11.498-.641 20.392-4.391 27.992-11.799l.066-.06a6.402 6.402 0 018.697 0l.065.06c7.6 7.408 16.495 11.158 27.993 11.8 5.514.307 9.898 4.868 9.98 10.382.016 1.13.045 2.146.09 3.108l.002.076c.223 11.747.499 26.367-4.4 39.65z" fill="#00DD80"/><path d="M81.277 66.78c-2.688 7.284-6.753 13.618-12.084 18.823-6.067 5.925-14.013 10.634-23.615 13.992-.315.11-.644.2-.974.266a7.34 7.34 0 01-1.321.139V0a6.416 6.416 0 014.263 1.702l.064.061c7.602 7.408 16.496 11.158 27.993 11.8 5.515.307 9.899 4.868 9.98 10.382.017 1.13.046 2.146.09 3.108l.003.076c.223 11.747.499 26.367-4.4 39.65z" fill="#00AA63"/><path d="M68.118 50c0 13.712-11.134 24.874-24.835 24.923h-.088c-13.741 0-24.923-11.18-24.923-24.923 0-13.741 11.182-24.922 24.923-24.922h.088c13.7.049 24.835 11.21 24.835 24.922z" fill="#fff"/><path d="M68.118 50c0 13.712-11.134 24.874-24.835 24.923V25.078c13.7.049 24.835 11.21 24.835 24.922z" fill="#E1EBF0"/><path d="M54.507 46.411L43.283 57.637l-2.425 2.425a2.926 2.926 0 01-2.076.86 2.927 2.927 0 01-2.075-.86l-5.215-5.216a2.933 2.933 0 114.149-4.15l3.141 3.143L50.36 42.262a2.933 2.933 0 114.149 4.149z" fill="#B4D2D7"/><path d="M54.507 46.411L43.283 57.637v-8.3l7.075-7.075a2.933 2.933 0 114.149 4.149z" fill="#6FA5AA"/></svg>