<svg width="25" height="25" fill="none" xmlns="http://www.w3.org/2000/svg"><path d="M17.188 0H7.813A7.813 7.813 0 000 7.813v9.375A7.813 7.813 0 007.813 25h9.375A7.813 7.813 0 0025 17.187V7.813A7.813 7.813 0 0017.187 0zm5.468 17.188a5.475 5.475 0 01-5.468 5.468H7.813a5.475 5.475 0 01-5.47-5.468V7.813a5.475 5.475 0 015.47-5.47h9.375a5.475 5.475 0 015.468 5.47v9.375z" fill="url(#paint0_linear)"/><path d="M12.5 6.25a6.25 6.25 0 100 12.5 6.25 6.25 0 000-12.5zm0 10.156A3.912 3.912 0 018.594 12.5 3.91 3.91 0 0112.5 8.594a3.91 3.91 0 013.906 3.906 3.912 3.912 0 01-3.906 3.906z" fill="url(#paint1_linear)"/><path d="M19.219 6.614a.833.833 0 100-1.666.833.833 0 000 1.666z" fill="url(#paint2_linear)"/><defs><linearGradient id="paint0_linear" x1="0" y1="0" x2="26.459" y2="1.654" gradientUnits="userSpaceOnUse"><stop stop-color="#8E302E" stop-opacity="0"/><stop offset="0" stop-color="#D1504E"/><stop offset="1" stop-color="#8E302E"/></linearGradient><linearGradient id="paint1_linear" x1="6.25" y1="6.25" x2="19.48" y2="7.077" gradientUnits="userSpaceOnUse"><stop stop-color="#8E302E" stop-opacity="0"/><stop offset="0" stop-color="#D1504E"/><stop offset="1" stop-color="#8E302E"/></linearGradient><linearGradient id="paint2_linear" x1="18.386" y1="4.948" x2="20.149" y2="5.059" gradientUnits="userSpaceOnUse"><stop stop-color="#8E302E" stop-opacity="0"/><stop offset="0" stop-color="#D1504E"/><stop offset="1" stop-color="#8E302E"/></linearGradient></defs></svg>