<svg width="81" height="76" fill="none" xmlns="http://www.w3.org/2000/svg"><path d="M9.208 67.174c0 2.273-1.89 3.41-4.041 3.41-2.227 0-4.025-1.175-4.025-4.005 0-1.36.337-2.775.694-4.152-1.2-.244-1.836-.93-1.836-1.77 0-.93.786-1.771 2.265-2.088-.019-.484-.111-1.041-.375-1.323a.376.376 0 01-.111-.297.4.4 0 01.252-.38c.05-.02.104-.03.158-.029.375 0 .824.652.92 1.918 1.422-.076 5.481.206 5.481 3.37 0 .836-.525 1.9-2.02 2.403.73.074 1.405.418 1.893.962.488.545.754 1.252.745 1.981zm-7.28-5.44c.182-.791.307-1.594.375-2.402-1.011.224-1.46.82-1.46 1.342 0 .617.58.933 1.085 1.06zm6.44 5.44c0-1.6-1.442-2.607-4.006-2.42a.363.363 0 01-.414-.37.414.414 0 01.414-.412c2.676-.038 3.404-1.34 3.404-2.14a1.953 1.953 0 00-.598-1.51c-.728-.724-2.3-1.228-4.044-1.136a15.8 15.8 0 01-.353 2.608c.487 0 1.365-.263 1.365-1.025 0-.035-.038-.222-.038-.279a.381.381 0 01.242-.365.36.36 0 01.152-.027c.43 0 .43.45.43.67 0 .97-.805 1.789-2.3 1.77a16.208 16.208 0 00-.637 4.004c0 2.513 1.664 3.351 3.182 3.351s3.2-.88 3.2-2.719zm7.165-1.471c-.016.75-.097 1.498-.242 2.234-.093.493-.156.99-.188 1.49a.698.698 0 00.039.241.451.451 0 01.073.225.423.423 0 01-.43.386c-.41 0-.525-.519-.525-.892.041-.531.11-1.06.207-1.583.134-.681.216-1.372.245-2.067 0-.892-.487-1.227-.973-1.227-1.423 0-2.492 2.158-2.492 3.854 0 .687.318 1.171.805 1.171.487 0 .882-.446 1.07-.949a.376.376 0 01.352-.24.391.391 0 01.371.252c.019.05.027.103.024.156-.1.44-.346.835-.7 1.119-.353.284-.793.44-1.247.444-.748 0-1.515-.557-1.515-1.953 0-1.937 1.346-4.636 3.405-4.636 1.069.003 1.72.69 1.72 1.975zm1.667 1.769c.038-1.473.283-2.933.729-4.339a6.901 6.901 0 01-.898.057.414.414 0 01-.42-.256.405.405 0 01-.028-.171c0-.057.035-.355.448-.355.404 0 .806-.05 1.197-.148.413-1.194 1.59-4.134 3.334-4.134.748 0 1.196.447 1.196 1.266 0 .82-.598 1.564-.992 1.956a6.285 6.285 0 01-2.883 1.545 14.91 14.91 0 00-.859 4.58c0 1.341.372 2.215 1.273 2.215.9 0 2.096-1.731 2.096-3.539 0-.892-.318-1.544-.973-1.544a1.063 1.063 0 00-.862.354.443.443 0 01-.319.13.415.415 0 01-.41-.408c0-.263.487-.896 1.626-.896 1.139 0 1.76.969 1.76 2.364 0 2.051-1.423 4.21-2.937 4.21-.882 0-2.078-.355-2.078-2.887zm4.025-6.687c.368-.361.61-.83.69-1.339 0-.316-.15-.541-.391-.541-.732 0-1.591 1.266-2.377 3.127a5.19 5.19 0 002.078-1.247zm3.33 3.598a18.484 18.484 0 00-.413 3.314c0 .538.076 1.73.713 1.73 1.142 0 2.545-2.905 2.526-5.158a.414.414 0 01.58-.355.382.382 0 01.225.374c0 .839-.13 2.662-.188 3.538a18.023 18.023 0 01-.675 3.91 2.013 2.013 0 011.085 1.677.41.41 0 01-.564.375.402.402 0 01-.24-.375.988.988 0 00-.58-.877c-.824 2.105-2.656 3.44-4.323 3.44-.917 0-1.74-.45-1.74-1.582 0-1.918 2.414-3.13 4.38-3.13.405-.006.809.051 1.197.167.339-1.168.57-2.363.693-3.573-.468 1.304-1.46 2.383-2.377 2.383-1.16 0-1.555-1.247-1.555-2.55.036-1.14.174-2.275.413-3.39.038-.13.093-.428.449-.428a.418.418 0 01.41.428l-.016.082zm1.76 7.764a3.932 3.932 0 00-.974-.114c-1.556 0-3.538.987-3.538 2.31 0 .595.506.874 1.009.874 1.292 0 2.771-1.21 3.503-3.07zm3.891-12.945c0 .392 0 2.123-.694 2.123a.428.428 0 01-.398-.262.394.394 0 01.045-.39c.15-.205.223-.69.223-1.471a.41.41 0 01.412-.376.415.415 0 01.412.376zm2.021 8.83a.315.315 0 01-.225.343.32.32 0 01-.148.008 1.657 1.657 0 00-.318-.054c-.353 0-.448.279-.448.538 0 .45.544.896 1.218.896.675 0 1.384-.392 1.384-1.231 0-.446-.226-.95-1.066-1.415-.601-.316-1.368-.817-1.368-1.75 0-.763.617-1.564 1.779-1.564 1.161 0 1.552.801 1.552 1.118a.419.419 0 01-.263.399.426.426 0 01-.166.031.383.383 0 01-.337-.244.87.87 0 00-.805-.595.85.85 0 00-.868.507.839.839 0 00-.068.348c0 .354.169.58.917 1.025.92.541 1.536 1.08 1.536 2.029 0 1.155-.824 2.013-2.246 2.013-1.069 0-2.04-.633-2.04-1.548a1.28 1.28 0 01.772-1.23c.158-.07.329-.106.501-.109.37 0 .707.111.707.485zm8.816-1.937c-.005-.61.038-1.221.13-1.826-1.364-.278-2.227-1.152-2.227-2.494 0-1.937 2.02-3.424 4.735-3.424 4.25 0 5.653 2.494 5.653 5.007 0 3.127-2.322 7.077-5.841 7.077-2.227 0-2.45-2.46-2.45-4.34zm7.448-2.737c0-1.62-.69-4.244-4.884-4.244-2.303 0-3.818 1.285-3.818 2.661-.015.418.125.826.395 1.146.27.32.65.529 1.066.586.13-.992.324-1.974.579-2.94a.4.4 0 01.391-.301.418.418 0 01.395.54c-.225.916-.4 1.843-.525 2.777 1.349-.057 2.115-.633 2.154-1.247a.423.423 0 01.43-.374.415.415 0 01.41.405c0 .728-.802 1.937-3.087 1.975a10.308 10.308 0 00-.13 1.75c0 2.14.353 3.593 1.645 3.593 3.013.003 4.979-3.72 4.979-6.327zm2.694 6.605a.404.404 0 01-.563.32.383.383 0 01-.222-.374c0-.13.525-3.184.525-3.798 0-.82-.17-1.136-.414-1.38a.354.354 0 01-.111-.297.41.41 0 01.39-.409c.357 0 .882.633.844 1.564a2.49 2.49 0 012.358-1.788.429.429 0 01.413.247.423.423 0 01.038.164.375.375 0 01-.246.347.38.38 0 01-.148.024c-1.947.114-2.323 2.383-2.752 4.766l-.112.614zm7.318-4.688c0-.373-.261-.633-.748-.633-.935 0-2.265 1.194-2.265 3.184 0 .633.206 1.77 1.552 1.77a1.728 1.728 0 001.311-.615.359.359 0 01.3-.148.39.39 0 01.375.427c0 .355-.9 1.098-2.04 1.098-1.422 0-2.341-.95-2.341-2.532 0-2.345 1.648-3.984 3.127-3.984 1.123 0 1.572.69 1.572 1.433 0 1.472-1.553 2.197-2.66 2.197a.391.391 0 01-.38-.235.384.384 0 01-.03-.154.427.427 0 01.41-.412c.881-.019 1.817-.557 1.817-1.396zm6.831.428c-.016.75-.097 1.498-.242 2.234-.094.493-.156.99-.188 1.49a.7.7 0 00.038.241.482.482 0 01.073.225.427.427 0 01-.43.386c-.413 0-.524-.519-.524-.892.04-.531.108-1.06.207-1.583a13.68 13.68 0 00.242-2.067c0-.892-.487-1.227-.974-1.227-1.422 0-2.488 2.158-2.488 3.854 0 .687.318 1.171.805 1.171.487 0 .878-.446 1.066-.949a.39.39 0 01.445-.227.392.392 0 01.306.395c-.1.44-.347.834-.7 1.118a2.03 2.03 0 01-1.248.445c-.75 0-1.517-.557-1.517-1.953 0-1.937 1.349-4.636 3.407-4.636 1.066.003 1.722.69 1.722 1.975zm1.33 4.209c.057-.402.138-.8.242-1.193.28-1.042.45-2.11.506-3.187 0-.203 0-.854-.28-1.133a.561.561 0 01-.096-.317.415.415 0 01.27-.38.42.42 0 01.163-.028c.391 0 .84.801.69 1.994.583-1.399 1.33-1.864 2.078-1.864.656 0 1.441.465 1.518 2.143.487-1.434 1.234-2.181 2.246-2.181.84.019 1.552.785 1.552 2.795a15.842 15.842 0 01-.505 3.52.46.46 0 01-.41.297.437.437 0 01-.434-.428.24.24 0 01.02-.114c.305-1.053.475-2.141.505-3.237 0-1.026-.187-1.994-.824-1.994-1.046 0-2.02 2.013-2.376 4.19-.207 1.266-.223 1.415-.56 1.415a.424.424 0 01-.385-.266.417.417 0 01-.029-.161c0-.076.096-.633.169-1.026.141-.768.223-1.546.245-2.326 0-.412-.02-1.807-.824-1.807-.974 0-2.078 2.161-2.695 5.38a.385.385 0 01-.395.336.395.395 0 01-.39-.428zm11.956-1.88a.315.315 0 01-.225.343.32.32 0 01-.147.008 1.667 1.667 0 00-.3-.054c-.355 0-.448.279-.448.538 0 .45.541.896 1.216.896.674 0 1.384-.392 1.384-1.231 0-.446-.223-.95-1.066-1.415-.598-.316-1.368-.817-1.368-1.75 0-.763.62-1.564 1.778-1.564S81 64.604 81 64.921a.425.425 0 01-.433.43.383.383 0 01-.337-.244.87.87 0 00-.805-.595.849.849 0 00-.867.507.837.837 0 00-.068.348c0 .354.168.58.92 1.025.916.541 1.533 1.08 1.533 2.029 0 1.155-.824 2.013-2.246 2.013-1.066 0-2.04-.633-2.04-1.548a1.283 1.283 0 01.785-1.235c.16-.068.333-.103.507-.103.337 0 .671.11.671.484z" fill="#530F1E"/><path d="M22.63 22.596c.13-.126.086-.294.102-.443.382-3.649 2.065-6.573 4.948-8.843a10.872 10.872 0 013.318-1.899 7.306 7.306 0 013.955-.24c.118.023.239.03.36.022.402-.02.805-.006 1.205.041a.46.46 0 00.55-.462c.03-.372.187-.723.446-.994 0-.016.041-.025.041-.04.077-.51.41-.91.595-1.368.07-.29.212-.558.414-.779.032-.025.076-.06.08-.088.022-.51.369-.896.518-1.358.048-.14.096-.282.156-.421.528-1.212 1.212-2.345 1.855-3.5.108-.19.226-.377.337-.567.08-.145.188-.273.318-.377h.178c-.168.637-.327 1.323-.54 1.972-.214.649-.42 1.326-.637 1.988-.13.411-.213.842-.372 1.24-.16.4-.417.763-.407 1.222a.565.565 0 01-.108.275 1.49 1.49 0 00-.242.852.419.419 0 01-.042.234c-.337.633-.318 1.374-.636 2.013A.234.234 0 0039 11.3c.184-.105.362-.219.553-.317.637-.316.955-.107.955.595.015.604-.13 1.2-.42 1.731a.89.89 0 00-.07.814c.188.544.41 1.041.938 1.342.193.12.41.194.637.215a.416.416 0 00.46-.312.409.409 0 00-.002-.2c-.02-.086-.048-.172-.147-.153-.098.02-.044.12-.07.178-.025.056.175.208 0 .265-.174.057-.235-.085-.318-.186a.472.472 0 01.026-.678.958.958 0 011.273.048 1.704 1.704 0 01.073 2.08 4.817 4.817 0 01-1.639 1.246c-.216.12-.245.215-.165.434.445 1.221 1.272 2.155 2.195 3.041a7.698 7.698 0 011.55 1.94c.788 1.516.728 2.953-.38 4.305a.863.863 0 00-.072.13c-.093.1-.191.202-.284.316a4.535 4.535 0 01-2.678 1.604c-.934.146-1.881.18-2.822.102a2.235 2.235 0 01-1.168-.348 1.617 1.617 0 00-.84-.228c.057.145.145.275.258.383.668.73 1.524.95 2.481.92 2.094-.047 4.105-.632 6.16-.923h1.164c.78.02 1.545.227 2.227.604a4.457 4.457 0 011.591 2.057c.127-.028.172-.139.242-.215a5.148 5.148 0 011.852-1.373c1.361-.542 2.761-.124 3.783 1.076a3.923 3.923 0 01.862 3.088c-.09.884-.255 1.76-.318 2.653-.044.6.022 1.202.194 1.778a.447.447 0 00.375.362.461.461 0 00.185-.01 3 3 0 00.884-.279 3.515 3.515 0 011.976-.405c.298.048.586.146.853.288a.807.807 0 01.397.76 2.151 2.151 0 01-.423 1.228 1.73 1.73 0 00-.36.683 1.235 1.235 0 00.389 1.175l.356.316a.505.505 0 01-.41-.117c-.713-.405-1.273-.896-1.219-1.826.026-.317-.184-.462-.512-.402a1.18 1.18 0 00-.484.23c-.41.289-.827.567-1.231.865-.954.69-1.979.766-3.077.538a4.312 4.312 0 01-2.252-1.355 7.516 7.516 0 01-1.91-3.557c-.025-.11-.063-.222-.117-.418-.343.9-.75 1.773-1.218 2.614a18.91 18.91 0 00-.837 1.76 2.765 2.765 0 00-.086 1.956c.177.564.39 1.115.636 1.652a2.241 2.241 0 010 1.9 6.616 6.616 0 00-.432 2.215 7.27 7.27 0 00.254 2.968.539.539 0 01-.216.678 3.87 3.87 0 01-1.273.614c-.127.034-.213.056-.216.221a.666.666 0 01-.318.52 3.592 3.592 0 01-1.77.778c-.022 0-.04.031-.06.05h-.725a2.189 2.189 0 00-.977-.496c-.2-.051-.264-.175-.242-.38.12-.879.376-1.733.76-2.532.376-.807.688-1.64.936-2.494a6.91 6.91 0 00-.197-4.077 19.873 19.873 0 01-1.053-4.33c0-.154-.073-.173-.207-.16a18.16 18.16 0 01-2.59.12c-.083 0-.15 0-.181.107-.337 1.266-.767 2.491-.637 3.823.06.668.188 1.326.319 1.985a6.553 6.553 0 01-.236 3.481c-.413 1.14-.248 2.292-.095 3.444a.44.44 0 01-.296.55 3.582 3.582 0 01-2.186.222 3.298 3.298 0 01-.827-.317c-.468-.24-.566-.522-.43-1.022.252-.8.544-1.589.875-2.36a6.785 6.785 0 000-4.694 33.153 33.153 0 01-1.148-3.973 15.491 15.491 0 01-.252-1.873c0-.171-.044-.285-.241-.294a.45.45 0 01-.2-.064.416.416 0 00-.56.092c-.598.492-1.236.932-1.91 1.313a8.439 8.439 0 00-1.435 1.092 1.112 1.112 0 00-.318 1.2c.115.352.259.694.43 1.022.247.46.432.949.55 1.456.041.2.188.266.344.336.48.224 1.002.18 1.511.237a4.2 4.2 0 01.738.133.427.427 0 01.337.437c0 1.161-.318 2.193-1.183 3.003-.138.16-.29.306-.452.44a.36.36 0 01-.49-.028 8.65 8.65 0 01-.735-.754 5.757 5.757 0 00-.954-.895 1.682 1.682 0 01-.742-1.083 7.793 7.793 0 00-1.708-3.56 2.16 2.16 0 01-.388-2.067 11.222 11.222 0 012.691-4.675c.13-.142.182-.218.016-.364-.165-.145-.318-.345-.522-.547a4.026 4.026 0 01-.318.95c-.954 1.534-2.227 2.531-4.069 2.794-.27.022-.543.003-.808-.057-.28-.044-.385-.269-.385-.535.007-.325.073-.647.194-.95.086-.192.14-.397.159-.607 0-.127.022-.27-.12-.345a.402.402 0 00-.427.057c-.09.057-.14.161-.255.187a.725.725 0 01.51-.478.422.422 0 01.502.161c.195.277.29.612.267.95 0 .183 0 .38.223.446a.525.525 0 00.55-.158 1.392 1.392 0 00.41-1.171 8.626 8.626 0 00-.359-1.994c-.101.183-.178.345-.276.49a1.05 1.05 0 01-.798.535 1.058 1.058 0 01-.902-.332 4.202 4.202 0 01-.518-.633c-.092-.12-.197-.27-.366-.203-.169.067-.184.228-.194.38a.76.76 0 00.404.662.723.723 0 01-.884-.475.89.89 0 01.318-1.14c.416-.24.802-.155 1.177.257.375.411.442.386.674-.11a1.91 1.91 0 00.179-.694c.065-.86.027-1.723-.115-2.573a6.994 6.994 0 00-.512-1.31c-.522-1.266-1.155-2.507-1.505-3.849a13.504 13.504 0 01-.42-2.32c0-.063.029-.146-.06-.184v-.24a3.361 3.361 0 000-1.143v-.54zm9.167 24.098c.057-.24-.16-.316-.28-.437a3.16 3.16 0 01-.319-.595c.153 0 .182.15.296.168.051-.117-.028-.212-.073-.316-.226-.513-.468-1.016-.697-1.526a1.577 1.577 0 010-1.39 8.293 8.293 0 011.874-1.531 20.875 20.875 0 001.706-1.178c.203-.155.194-.221-.042-.316a9.766 9.766 0 01-2.389-1.427c-.608-.491-.608-.491-1.142.094v.026a11.377 11.377 0 00-2.15 3.779 2.433 2.433 0 00.508 2.532 5.683 5.683 0 011.327 2.782 2.7 2.7 0 001.145 1.82c.15.107.22.107.318-.032a3.393 3.393 0 00.732-1.87c.108-.266.054-.44-.264-.5a2.735 2.735 0 00-.55-.09v.007zm7.69-39.666V6.98c.165-.031.318.235.496 0 .227-.305.358-.67.379-1.05 0-.05 0-.114-.045-.13-.226-.063-.038-.124 0-.13.102 0 .137-.076.169-.145.206-.453.442-.902.248-1.425.073 0 .162.102.2-.047.025-.065.053-.129.086-.19.24-.594.424-1.21.547-1.839-.254.396-.467.81-.706 1.212a.947.947 0 00-.12.87c-.192.042-.115-.18-.243-.234-.343.52-.738 1.02-.451 1.744-.15-.063-.118-.212-.23-.24-.318.494-.652.981-.337 1.604-.2 0-.165-.221-.318-.316a1.083 1.083 0 00-.172 1.152c-.025.14.156.218.108.364l-.114-.041-.169-.43a1.296 1.296 0 00-.226 1.67.537.537 0 00.44.472c.213.019.206-.269.317-.411a.629.629 0 00.09-.254c.06-.35.245-.737-.245-.95.43.064.461.045.636-.385.088-.19.117-.402.083-.608-.077-.161-.309-.104-.423-.215zm-.904 2.643a2.656 2.656 0 01-.318-.89 1.445 1.445 0 00-.07 1.934c.13.19.318.37.534.332.217-.038.198-.316.268-.497a.376.376 0 00.022-.085c.076-.266.102-.503-.239-.617-.076-.02-.13-.117-.197-.177zM23.174 35.94a.536.536 0 01.856.066c.158.222.33.434.516.633a.76.76 0 001.091.063 1.227 1.227 0 01-1.117-.664 1.864 1.864 0 00-.318-.424.733.733 0 00-.98-.117c-.216.16-.26.443-.089.57-.13.19-.092.344.096.521a1.77 1.77 0 01.073-.547c.038-.136-.077-.098-.128-.108v.007zm6.046 1.079c-.104.343-.228.68-.37 1.01a4.99 4.99 0 01-1.718 1.898l-.175.057c.105 0 .163.048.223 0 .508-.19.976-.472 1.381-.832.5-.383.89-.89 1.13-1.472.184-.363.308-.755.365-1.158a.256.256 0 00-.038-.228c-.175-.209-.344-.424-.55-.677-.04.47-.12.938-.239 1.396l-.01.006zm9.888-24.687c.263.338.478.711.636 1.108a3.64 3.64 0 00.497-2.003c-.03-.345-.067-.367-.41-.24-.24.057-.465.165-.66.316-.356.215-.356.493-.038.81l-.025.01zm-2.08 1.336a2.524 2.524 0 01-.427-1.171c-.477.383-.557 1.171-.21 1.877a1.165 1.165 0 001.152.816c.108 0 .22-.04.264-.164.078-.236.12-.483.124-.731 0-.051 0-.098-.077-.098-.407.012-.598-.285-.817-.538l-.01.009zM47.252 51.73c-.442.07-.449.07-.401.512.032.317.08.614.134.918.076.453.082.45.53.317.02 0 .033-.023.049-.032.32-.085.62-.232.88-.434a.276.276 0 00.131-.351 7.878 7.878 0 01-.318-1.443 4.075 4.075 0 01-.996.503l-.01.01zm-9.704-39.942c0 .057.064.108 0 .161-.162-.1-.162-.1-.372-.734-.506.38-.637 1.355-.245 2.016.083.313.279.584.55.763.277.215.487.146.636-.18.14-.343.226-.705.255-1.073 0-.111.025-.193-.143-.222-.318-.054-.391-.13-.465-.316.707.3.93.158.987-.633 0-.238 0-.421-.28-.504a1.112 1.112 0 01-.398-.316 1.893 1.893 0 01-.34-.858 1.503 1.503 0 00-.175 1.886l-.01.01zm-4.696 35.558c-.197.734-.34 1.49-.955 2.022-.07.057-.031.099 0 .143.319.338.662.674.987 1.013.156.161.226 0 .318-.08.092-.079.181-.151.025-.281a1.472 1.472 0 01-.439-.538.923.923 0 01.43.294c.165.162.296.152.448-.022a3.32 3.32 0 00.812-1.832c.065-.252.081-.512.047-.77 0-.133-.082-.18-.206-.209a6.804 6.804 0 00-1.009-.145c-.439-.038-.439-.032-.458.405zm15.526-1.855c.16.708.038 1.45-.34 2.07a8.98 8.98 0 00-.866 2.127 5.58 5.58 0 00-.318 1.541c-.05.387-.025.4.347.298a.483.483 0 00.083-.038c.225-.046.44-.131.636-.25a.574.574 0 00.356-.608c0-1.152.054-2.313.51-3.386a2.358 2.358 0 00-.118-2.12c-.185-.567-.417-1.118-.554-1.7-.084.7.007 1.41.264 2.066zm-9.322 8.812l.172-.038c.264-.051.388-.171.318-.472a9.023 9.023 0 01-.127-.972c-.048-.446-.048-.446-.487-.332a2.75 2.75 0 01-2.033-.487c-.196.418-.364.848-.503 1.288-.178.462-.117.601.318.816.064.029.13.051.194.076.198.076.319.064.363-.196.024-.258.104-.507.236-.731-.032.316-.083.61-.14.915-.026.126 0 .196.15.218.512.089 1.039.06 1.539-.085zm6.646.493c.32-.086.613-.245.86-.465a.52.52 0 00.235-.563c-.073-.39-.13-.782-.194-1.168l-.602.237a4.006 4.006 0 01-2.08-.117c-.166-.06-.178.029-.223.136a7.37 7.37 0 00-.372 1.447c-.029.155 0 .228.152.269.153.04.233.07.347.104.115.035.194 0 .213-.145a.63.63 0 01.194-.478c-.031.256-.054.478-.082.702a.174.174 0 00.178.222c.466.085.947.022 1.374-.18zm5.533-15.824c.598 1.465 1.52 2.652 2.965 3.37a2.57 2.57 0 001.33.26c-1.196-.605-1.877-1.602-2.316-2.81-.207-.564-.458-1.108-.671-1.669a3.881 3.881 0 00-.754-1.284 1.906 1.906 0 00-.748-.633c-.06-.032-.172-.114-.19 0-.055.316-.255.613-.182.924a8.34 8.34 0 00.518 1.674l.02.06.028.108zm-.33-6.773c-.166.19-.398.351-.236.661.092.184.044.507.21.55.165.045.353-.18.531-.284.37-.2.754-.376 1.149-.525a2.781 2.781 0 012.436.296 2.76 2.76 0 011.242 2.106c.022.633.101 1.266.175 1.899.025.404.094.804.206 1.193a.14.14 0 00.067-.149c.004-.78.07-1.559.194-2.33a5.687 5.687 0 000-2.294c-.391-1.582-1.781-2.7-3.312-2.61-1.116.075-1.934.724-2.663 1.487zm-8.273-17.407c-.019-.057-.057-.073-.108-.038l.067.082a1.116 1.116 0 01.057 1.035 2.332 2.332 0 01-.764 1.057 3.742 3.742 0 01-2.917.655 6.204 6.204 0 01-2.45-1.108 22.484 22.484 0 00-2.67-1.63 2.533 2.533 0 00-1.154-.294c-.191 0-.245.035-.166.237.29.68.503 1.39.637 2.118.019.13.08.174.21.196a3.41 3.41 0 011.126.323c.827.437 1.731.71 2.663.804a7.376 7.376 0 004.572-.804 2.58 2.58 0 001.107-1.073 1.26 1.26 0 00-.21-1.573v.012zm8.708 18.552c-.194.14-.54.143-.449.535.055.219-.015.55.112.633.127.082.449.02.684.016A2.997 2.997 0 0154 36.243c.18.37.336.75.47 1.137.341.971.586 1.971.955 2.93.146.427.37.823.662 1.168.423.456.954.684 1.546.453a2.426 2.426 0 001.308-1.165c-.955.225-1.46-.342-1.909-1.003a4.843 4.843 0 01-.601-1.583 23.09 23.09 0 01-.363-3.066c-.124-1.336-1.044-2.365-2.297-2.51-.891-.111-1.693.234-2.437.728l.006.012zM26.875 39.32a2.1 2.1 0 00.276-.348c.888-1.68 1.136-3.4.28-5.175-.254-.522-.528-1.035-.776-1.557-1.218-2.58-2.256-5.22-2.475-8.102-.245-3.232.273-6.28 2.128-9.02.039-.054.134-.111.042-.197-.105 0-.15.098-.207.165a12.588 12.588 0 00-2.623 4.613 12.543 12.543 0 00-.485 5.277 15.73 15.73 0 001.438 4.887 37.706 37.706 0 012.294 6.273c.26 1.032.47 2.076.05 3.124l-.06.079a.07.07 0 00.064.013.07.07 0 00.047-.045l.007.013zm14.718 1.386c.534.019 1.062-.073 1.59-.089.22 0 .319-.06.287-.316a11.264 11.264 0 01.162-2.867c.022-.127-.048-.377.15-.349.137.02.044.263.028.4a15.93 15.93 0 00.115 4.633c.237 1.082.539 2.15.903 3.196.366 1.222.56 2.447.268 3.722a15.047 15.047 0 01-1.136 3.146c-.134.282-.038.396.213.465a3.054 3.054 0 001.836 0c.242-.038.566-.133.553-.354-.025-.51.035-1.01.045-1.513.019-.057.048-.114.06-.17a10.408 10.408 0 011.117-3.09 2.715 2.715 0 00.188-2.332 4.33 4.33 0 01-.121-2.077 9.538 9.538 0 011.075-2.94c.5-.99 1.082-1.937 1.394-3.013.534-1.851.531-3.65-.455-5.38a3.365 3.365 0 00-2.332-1.788 7.83 7.83 0 00-2.848.019c-1.435.25-2.863.57-4.304.734-1.384.155-2.724.149-3.796-.95a1.809 1.809 0 01-.318-.436c-.073-.216-.217-.247-.404-.273a6.45 6.45 0 01-3.228-1.272 6.4 6.4 0 01-2.092-2.757 9.359 9.359 0 01-.668-3.36c.038-.08.02-.197.13-.232.023.02.035.022.035.029v.209c.09 1.277.4 2.53.92 3.703.687 1.506 1.909 2.48 3.376 3.114.785.338 1.683.37 2.58.5a2.063 2.063 0 01-.328-1.086.397.397 0 00-.175-.38.588.588 0 01-.197-.55c.372.566.862.601 1.46.42a.717.717 0 01-.658.349c-.198 0-.182.076-.169.206a1.523 1.523 0 00.592 1.098c.463.332 1.02.508 1.59.503.335.022.678-.022 1.019 0 0 .048.038.07.08.057.04-.013.028-.038.04-.06l.66-.057a3.946 3.946 0 002.06-.7 6.98 6.98 0 001.178-1.11c1.203-1.428 1.308-2.915.318-4.504a9.665 9.665 0 00-1.59-1.861 7.377 7.377 0 01-2.075-3.111c-.029-.095-.044-.162-.178-.111a8.265 8.265 0 01-2.307.405c-.07 0-.14-.019-.207-.019a7.276 7.276 0 01-3.353-.747 4.632 4.632 0 00-1.075-.383c-.319-.079-.319-.076-.319.276v.478c-.076.126 0 .316-.146.43a9.814 9.814 0 00-1.4-4.918 2.79 2.79 0 00-.582-.725.5.5 0 00-.834.079c-.183.24-.3.524-.34.823-.286 1.899.372 3.424 1.817 4.652.063.054.175.067.168.193-.168.064-.267-.107-.413-.12-.153-.14-.319-.269-.462-.424-.506-.554-.506-.557-.992.041l-.112.143a12.622 12.622 0 00-1.988 3.529 6.033 6.033 0 00-.41 1.303 9.595 9.595 0 00-.481 2.165c-.236 2.288.053 4.6.846 6.76 1.333 3.618 3.685 6.286 7.372 7.682.207.079.293.104.283-.174a8.304 8.304 0 01.388-2.573c.077-.263.198-.516.319-.83.025.092.038.111.035.127-.008.07-.021.138-.039.206a12.858 12.858 0 00.054 6.618c.347 1.304.847 2.563 1.143 3.88.146.633.343 1.266.238 1.95a13.982 13.982 0 01-.719 2.658.267.267 0 00.038.322.27.27 0 00.096.064 2.509 2.509 0 001.766.333c.152-.042.407 0 .404-.206 0-.655.206-1.266.318-1.9a4.989 4.989 0 00.366-2.215 21.702 21.702 0 00-.255-1.807 7.9 7.9 0 01.14-3.852c.27-.854.471-1.73.713-2.595.052-.342.14-.678.26-1.003.106.136.055.291.045.437-.04.448-.126.892-.258 1.323-.044.155 0 .224.156.221.258.013.515.002.77-.035l.007.013zm-14.031-6.963a.507.507 0 00-.022-.38c-.21-.667-.404-1.338-.637-2-1.61-4.535-1.33-9.03.319-13.48a9.354 9.354 0 012.255-3.408.527.527 0 00.182-.354 3.39 3.39 0 01.296-1.099c.286-.61.744-.737 1.288-.338a.225.225 0 00.245.049.225.225 0 00.073-.05 6.15 6.15 0 011.846-.955c.318-.114.665-.222 1.034-.342a7.035 7.035 0 00-3.542.317c-2.583.974-4.365 2.82-5.475 5.294-1.273 2.798-1.416 5.723-.89 8.707a24.082 24.082 0 001.956 5.814c.334.722.687 1.437 1.066 2.225h.006zm14.053-18.648c.14-.209.267-.408.484-.183a.504.504 0 01.057.541.462.462 0 01-.401.358 1.57 1.57 0 01-1.572-.738 6.587 6.587 0 01-.318-.674c-.21-.475-.318-.987-.553-1.45a1.403 1.403 0 00-.424-.572c-.187-.133-.286-.073-.28.139a2.47 2.47 0 01-.076.652c-.15.649-.468 1.244-.566 1.899a.426.426 0 01-.338.338.432.432 0 01-.168 0 1.594 1.594 0 01-.92-.41 2.103 2.103 0 01-.184-2.621c.136-.167.221-.37.245-.583.044-.351.048-.345-.318-.383-1.19-.12-2.291.203-3.366.655a5.413 5.413 0 00-1.244.722c-.077.06-.182.104-.077.231.31.395.56.832.745 1.298.032.07.063.114.159.082a1.537 1.537 0 011.053.13c.878.374 1.71.848 2.478 1.411.62.44 1.272.83 1.95 1.171a3.763 3.763 0 002.934.14 2.364 2.364 0 001.607-1.583.866.866 0 00-.29-.972.449.449 0 00-.477-.088c-.175.101-.172.262-.146.49h.006zm-11.918.276a7.453 7.453 0 00-2.227 2.778c-1.448 3.055-1.747 6.27-1.298 9.584.266 1.63.692 3.231 1.272 4.779.547 1.582.955 3.165.528 4.87-.27 1.039-.677 1.96-1.59 2.625a.527.527 0 00.13 0 .733.733 0 00.14-.048 3.797 3.797 0 001.174-.877c1.04-1.12 1.308-2.487 1.273-3.95a.49.49 0 00-.102-.243 14.245 14.245 0 01-1.626-3.668c-.929-3.314-.872-6.58.449-9.79.614-1.474 1.33-2.883 2.523-4.006a.159.159 0 00.028-.231 5.9 5.9 0 01-.68-1.823h.006zm27.8 26.813c-1.145 0-1.517-.462-2.013-1.408a4.63 4.63 0 01-.268-.633c-.197-.589-.382-1.178-.57-1.77a10.069 10.069 0 00-.916-2.307 2.655 2.655 0 00-2.437-1.38c-.222 0-.346.054-.318.317.002.27-.014.54-.047.807 0 .101-.03.18.105.237a2.755 2.755 0 011.272 1.266c.404.748.745 1.528 1.018 2.333.296.931.86 1.755 1.623 2.37.659.529 1.747.823 2.545.168h.007zm3.306.541c-.016-.924 0-1.016.318-1.475.086-.133.175-.266.248-.408.154-.26.225-.56.204-.86a.63.63 0 00-.569-.635.64.64 0 00-.306.042 1.368 1.368 0 00-.636.405 9.804 9.804 0 00-1.06 1.267c-.038.056-.114.1-.092.196.14-.089.267-.171.395-.247a.744.744 0 01.744 0c.232.114.245.316.236.541a1.363 1.363 0 00.512 1.174h.006zm-35.24-9.476a8.188 8.188 0 01-.155 1.855 1.12 1.12 0 01-.61.899c-.049.022-.074.041-.049.082a.815.815 0 00.475.39c.232.079.505.155.683-.042a1.267 1.267 0 00.376-1.01 11.472 11.472 0 00-.72-2.174zm35.062 5.95a2.705 2.705 0 00-1.301.092c-.637.18-1.222.602-1.947.542a1.267 1.267 0 001.272.803 1.37 1.37 0 00.843-.531c.3-.39.688-.705 1.133-.918v.013zm-35.236-.696c-.086.481-.318.817-.347 1.225-.029.408.21.592.614.503.277-.062.527-.214.71-.43.19-.226.308-.504.337-.798-.318.276-.531.573-.916.453-.436-.136-.277-.56-.398-.953zm4.2-23.882c-.57.449-1.642 1.927-1.785 2.446.076 0 .098-.057.133-.104a7.41 7.41 0 011.378-1.542.662.662 0 00.274-.8zM56.65 38.25a.1.1 0 000-.05s0-.02-.025-.03c-.026-.009-.016.033 0 .045a.18.18 0 01.035.035h-.01zm-29.003-4.497l-.048-.041s-.025.028-.022.037c.01.021.023.04.038.057l.032-.053z" fill="#161315"/><path d="M24.31 38.266l.01.013-.016-.007.006-.006z" fill="#161315"/><path d="M38.933 52.325a2.508 2.508 0 01-1.766-.332.27.27 0 01-.133-.387c.326-.86.567-1.75.719-2.658.105-.677-.093-1.31-.239-1.95-.296-1.316-.795-2.576-1.142-3.88a12.857 12.857 0 01-.054-6.618 1.48 1.48 0 00.038-.206c0-.015 0-.034-.035-.126-.124.316-.245.566-.318.83a8.304 8.304 0 00-.388 2.572c0 .279-.077.253-.284.174-3.687-1.395-6.045-4.063-7.371-7.681a15.116 15.116 0 01-.847-6.76 9.586 9.586 0 01.48-2.165c.112 0 .109-.101.14-.168.322-.66.692-1.294 1.108-1.899.636-.89 1.324-1.737 2.348-2.234a.541.541 0 00.318-.295c.147 0 .245.184.414.12 0-.126-.105-.139-.169-.192-1.444-1.228-2.103-2.76-1.816-4.653.04-.3.158-.583.343-.823a.499.499 0 01.834-.079c.233.208.43.453.582.725a9.813 9.813 0 011.394 4.924c.155-.117.07-.316.146-.43.528.063 1.021.282 1.54.38.06.076.113.159.156.247.025.076.194.117.07.24a.238.238 0 01-.28.08.24.24 0 01-.086-.058.41.41 0 00-.366-.148c.111.079.207.136.286.205.08.07.178.06.124.168a.194.194 0 01-.257.092l-.452-.168c-.124-.047-.23-.161-.385-.101.273.159.558.297.852.414a.397.397 0 01-.318.232c-.326.06-.658.082-.99.066-.088 0-.19-.041-.254.076.343.038.687.05 1.031.035.14 0 .2 0 .217.174.03.432.123.859.273 1.266.12.314.306.6.544.838.882.877 1.833.858 2.78-.034a.494.494 0 00.163-.535 4.897 4.897 0 00-.767-1.68c-.378-.517-.85-.95-1.543-.988a.69.69 0 01-.636-.358c.032-.054.08-.038.13-.032.865.1 1.736.145 2.606.137.194 0 .398 0 .547-.159a8.269 8.269 0 002.307-.405c.134-.05.15 0 .178.111a7.377 7.377 0 002.075 3.111 9.665 9.665 0 011.59 1.861c.99 1.583.885 3.076-.318 4.504a6.983 6.983 0 01-1.177 1.11 3.942 3.942 0 01-2.087.684l-.659.057c-.041-.076-.082-.066-.12 0-.341 0-.685.035-1.019 0a2.689 2.689 0 01-1.59-.503 1.531 1.531 0 01-.592-1.098c0-.13-.029-.218.168-.206a.722.722 0 00.659-.348c-.598.18-1.088.146-1.46-.42a.586.586 0 00.197.55.4.4 0 01.175.38c.015.388.14.764.36 1.085-.898-.13-1.795-.161-2.58-.5-1.474-.633-2.69-1.608-3.377-3.114a11.03 11.03 0 01-.919-3.703v-.21l-.035-.028c-.111.035-.092.152-.13.232-.077 0-.102.047-.125.107a4.238 4.238 0 00-.29 1.342c-.028 1.997.898 3.529 2.365 4.747a8.18 8.18 0 004.772 1.94c1.072 1.09 2.412 1.096 3.796.95 1.447-.165 2.863-.484 4.304-.734a7.828 7.828 0 012.848-.02 3.386 3.386 0 012.332 1.789c.986 1.722.99 3.52.455 5.38-.318 1.076-.894 2.023-1.393 3.013a9.537 9.537 0 00-1.076 2.94 4.33 4.33 0 00.121 2.077 2.713 2.713 0 01-.188 2.332c-.533.965-.91 2.008-1.116 3.09 0 .056-.042.113-.06.17-.118 0-.157.083-.188.165a4.32 4.32 0 00-.41 1.703 3.055 3.055 0 01-1.837 0c-.251-.07-.346-.184-.213-.466a15.048 15.048 0 001.136-3.146c.293-1.266.099-2.5-.267-3.722a27.912 27.912 0 01-.904-3.196 15.93 15.93 0 01-.114-4.634c.016-.136.108-.38-.029-.398-.197-.029-.127.221-.15.348-.176.945-.23 1.908-.162 2.867.02.25-.067.317-.286.317-.531 0-1.06.107-1.591.088a4.345 4.345 0 00-.554-2.598c-.1.19-.157.4-.165.614-.122.324-.209.66-.26 1.003-.243.864-.443 1.74-.714 2.595a7.901 7.901 0 00-.14 3.852c.112.598.195 1.203.255 1.807a4.991 4.991 0 01-.366 2.216c-.086 0-.105.085-.127.145a7.176 7.176 0 00-.592 1.969zM30.368 14.62c-.007.68.135 1.352.417 1.972.277.613.74 1.125 1.323 1.465.086.048.195.14.319.054.124-.085.063-.203.044-.317-.054-.294-.111-.588-.162-.883a12.673 12.673 0 00-.62-2.335 1.612 1.612 0 00-.669-.893c-.299-.17-.505-.085-.566.247-.048.266-.067.535-.086.69zm12.927 9.811c-.232 0-.385.162-.388.434a.457.457 0 00.407.497.427.427 0 00.401-.437.464.464 0 00-.42-.487v-.007z" fill="#fff"/><path d="M29.69 15.37a5.9 5.9 0 00.681 1.83.158.158 0 01-.029.231c-1.193 1.117-1.909 2.532-2.516 4.013-1.32 3.21-1.378 6.476-.449 9.79a14.246 14.246 0 001.626 3.667.49.49 0 01.102.244c.025 1.462-.242 2.83-1.273 3.95-.33.365-.729.663-1.174.877a.728.728 0 01-.14.047.528.528 0 01-.13 0c.9-.664 1.307-1.582 1.59-2.624.44-1.702.02-3.285-.528-4.87a25.146 25.146 0 01-1.272-4.78c-.449-3.313-.15-6.529 1.298-9.583a7.454 7.454 0 012.214-2.791z" fill="#E38AB9"/><path d="M32.617 47.285a3.392 3.392 0 01-.731 1.871c-.109.14-.179.14-.319.032a2.716 2.716 0 01-1.145-1.82 5.684 5.684 0 00-1.327-2.782 2.442 2.442 0 01-.509-2.532 11.376 11.376 0 012.151-3.78c.08 0 .159.01.236.033.585.288.843.816 1.034 1.402.162.49-.09.826-.389 1.148-.467.5-.852 1.035-.878 1.754a1.576 1.576 0 000 1.39c.23.509.471 1.012.697 1.525.044.092.124.186.073.316-.114-.019-.143-.17-.296-.167.085.209.191.408.318.595a.451.451 0 00.28.436c.134.361.471.469.805.58z" fill="#fff"/><path d="M57.492 42.184c-.799.656-1.887.361-2.545-.16a4.983 4.983 0 01-1.623-2.371 15.195 15.195 0 00-1.018-2.333 2.755 2.755 0 00-1.273-1.266c-.133-.057-.111-.136-.105-.237.033-.268.05-.538.048-.807 0-.266.108-.317.318-.317a2.655 2.655 0 012.437 1.38c.4.729.707 1.504.916 2.307.188.592.373 1.18.57 1.77.073.217.163.428.267.633.49.94.862 1.405 2.008 1.401zM42.633 14.778a1.264 1.264 0 01.217 1.583c-.254.459-.642.83-1.114 1.063a7.376 7.376 0 01-4.572.82 7.257 7.257 0 01-2.663-.82 3.421 3.421 0 00-1.116-.345c-.13-.022-.191-.066-.21-.196a10.06 10.06 0 00-.637-2.117c-.08-.203-.025-.235.166-.238a2.53 2.53 0 011.155.295c.922.488 1.808 1.04 2.653 1.652a6.203 6.203 0 002.45 1.107 3.75 3.75 0 002.917-.655c.35-.273.615-.64.764-1.057a1.116 1.116 0 00-.057-1.035l.047-.057z" fill="#E38AB9"/><path d="M36.588 29.803a8.18 8.18 0 01-4.773-1.934c-1.463-1.212-2.389-2.744-2.348-4.719.023-.46.12-.913.29-1.342.022-.06.048-.11.124-.107a9.361 9.361 0 00.662 3.354 6.4 6.4 0 002.093 2.764 6.45 6.45 0 003.233 1.275c.188.025.318.057.404.272.082.16.188.308.315.437zm-5.857 12.808c.025-.718.41-1.266.878-1.753.3-.316.55-.658.388-1.149-.19-.585-.448-1.114-1.034-1.402a.815.815 0 00-.235-.032v-.025c.534-.585.534-.585 1.142-.095a9.765 9.765 0 002.39 1.428c.235.098.244.164.04.316-.546.424-1.12.81-1.705 1.177a8.29 8.29 0 00-1.864 1.535z" fill="#B3B3B3"/><path d="M47.174 49.688a8.976 8.976 0 01.865-2.127c.379-.62.5-1.362.34-2.07.175-.06.144-.279.28-.367a2.36 2.36 0 01.118 2.12c-.455 1.073-.519 2.235-.509 3.387a.57.57 0 01-.356.608 2.026 2.026 0 01-.637.25v-1.52c-.003-.098.045-.227-.101-.281z" fill="#fff"/><path d="M31.498 18.548a.539.539 0 01-.319.294c-1.024.497-1.708 1.346-2.348 2.235-.415.605-.785 1.24-1.107 1.899-.032.066-.028.168-.14.168.088-.451.227-.891.414-1.31a12.621 12.621 0 011.944-3.526l.111-.143c.487-.598.487-.595.993-.041.133.155.312.285.452.424z" fill="#B3B3B3"/><path d="M60.797 42.725a1.37 1.37 0 01-.518-1.193c0-.212 0-.427-.236-.541a.744.744 0 00-.745 0c-.127.076-.254.158-.394.247-.022-.095.054-.14.092-.197.317-.45.671-.874 1.06-1.266.17-.191.39-.332.636-.405a.64.64 0 01.802.293.63.63 0 01.073.3c.02.3-.05.6-.204.86-.073.142-.162.275-.248.408-.315.478-.347.564-.318 1.494z" fill="#E38AB9"/><path d="M38.084 10.778c.11.137.252.245.413.316.268.083.296.266.28.504-.057.775-.28.917-.986.633.073.18.153.256.465.316.168.029.156.11.143.222-.029.368-.115.73-.255 1.073-.143.316-.353.395-.636.18a1.32 1.32 0 01-.55-.763c.063-.456.268-.88.585-1.215.064.044.083.174.245.12-.092-.073-.086-.2-.22-.196.058-.057 0-.108 0-.165.128-.057.096-.18.125-.281.066-.301.098-.598.39-.744z" fill="#fff"/><path d="M34.782 18.514c-.52-.098-1.012-.317-1.54-.38v-.478c0-.351 0-.354.318-.275.373.083.734.211 1.075.383a7.276 7.276 0 003.354.747c.066 0 .136 0 .206.019-.15.168-.353.148-.547.158a21.12 21.12 0 01-2.606-.136c-.05 0-.098-.022-.13.032-.029-.02-.06-.09-.13-.07z" fill="#B3B3B3"/><path d="M39.49 6.98c-.319-.633 0-1.11.337-1.605.111.029.08.178.229.24-.287-.724.108-1.224.452-1.743.127.054.05.275.241.234.194.522-.041.972-.248 1.424-.032.07-.067.137-.168.146-.048 0-.236.066 0 .13.057.016.047.079.044.13a1.937 1.937 0 01-.394 1.044c-.166.231-.319-.035-.497 0h.004z" fill="#fff"/><path d="M53.215 39.789c-.207-.564-.458-1.108-.671-1.668a3.883 3.883 0 00-.754-1.285 1.906 1.906 0 00-.748-.633c-.06-.032-.172-.114-.19 0-.055.316-.255.614-.182.924a8.37 8.37 0 00.518 1.674l.02.06.028.089c.598 1.465 1.521 2.652 2.966 3.37.411.204.87.294 1.33.26-1.197-.585-1.878-1.582-2.317-2.791z" fill="#E38AB9"/><path d="M40.864 38.738c.008-.215.064-.425.165-.614.447.779.641 1.676.557 2.57-.258.033-.52.042-.78.025-.171 0-.2-.067-.155-.222.132-.43.218-.874.257-1.323.01-.145.06-.3-.044-.436z" fill="#B3B3B3"/><path d="M37.037 13.659c.22.253.41.55.811.538.067 0 .08.047.077.098a2.46 2.46 0 01-.124.73c-.045.124-.156.15-.265.165a1.175 1.175 0 01-1.135-.826c.187-.269.257-.617.636-.705zm2.809-2.472c.344-.127.382-.104.41.24a3.64 3.64 0 01-.486 2.004 4.54 4.54 0 00-.637-1.108c.12-.282.278-.547.468-.788.077-.123.236-.177.245-.348z" fill="#fff"/><path d="M45.704 54.796c.229-.633.22-1.304.299-1.96l.601-.237c.064.387.12.779.194 1.168a.518.518 0 01-.235.564c-.246.22-.54.378-.86.465zM25.389 38.504c.12.392-.038.816.398.95.385.12.604-.178.916-.453-.03.293-.147.571-.337.797a1.306 1.306 0 01-.71.43c-.404.09-.636-.091-.614-.503.022-.411.261-.74.347-1.221zm-2.269-2.451c-.172-.126-.127-.408.09-.57a.734.734 0 01.98.118c.125.126.232.268.317.424a1.218 1.218 0 001.117.665.764.764 0 01-1.091-.064 6.07 6.07 0 01-.516-.633.534.534 0 00-.856-.066.12.12 0 00-.063.13l.022-.004zm11.349 12.012a3.145 3.145 0 00-1.193-.602c-.143-.034-.283-.079-.426-.117.022-.436.022-.443.451-.405.34.023.677.072 1.009.146.124.028.207.076.207.209.033.257.017.518-.048.769zM29.69 37.68c-.152 0-.18-.127-.222-.231a.948.948 0 00-.239-.427c.12-.461.2-.931.239-1.405.207.253.375.468.55.677a.256.256 0 01.038.228c-.057.403-.18.794-.365 1.158z" fill="#E38AB9"/><path d="M39.174 8.246c.49.212.319.598.245.95a.629.629 0 01-.089.253c-.102.142-.095.43-.318.411a.541.541 0 01-.439-.471c.032 0 .086-.029.092-.05.115-.397.22-.795.319-1.19l.114.04c0 .05.022.073.067.067l.01-.01z" fill="#fff"/><path d="M39.057 54.302c-.168-.094-.137-.26-.111-.398a4.064 4.064 0 000-1.415c.439-.114.439-.114.487.332.024.326.067.65.127.972.067.316-.057.42-.318.471l-.185.038zm8.205-2.582c.105.57.207 1.14.318 1.709-.015 0-.028.028-.047.032-.449.139-.455.142-.532-.317a13.86 13.86 0 01-.133-.918c-.054-.437-.048-.437.394-.506z" fill="#E38AB9"/><path d="M37.542 12.044a2.21 2.21 0 00-.585 1.194c-.375-.662-.26-1.637.245-2.016.21.633.21.633.372.737l-.032.085zm-.505 1.615c-.379.088-.465.436-.636.705-.347-.705-.268-1.493.21-1.876.041.42.188.822.426 1.17z" fill="#B3B3B3"/><path d="M38.584 9.67c.066.06.12.153.197.178.34.114.318.351.238.617a.377.377 0 01-.022.085c-.07.18-.07.46-.267.497-.197.038-.404-.142-.535-.332a.63.63 0 00.083-.278c.035-.277.14-.541.306-.766z" fill="#fff"/><path d="M38.583 9.67c-.17.224-.28.488-.318.767a.63.63 0 01-.083.278 1.444 1.444 0 01.07-1.934c.056.314.168.615.33.89z" fill="#B3B3B3"/><path d="M38.084 10.778c-.293.158-.319.456-.401.731-.029.101 0 .225-.124.282a1.5 1.5 0 01.184-1.87 1.9 1.9 0 00.34.857z" fill="#B3B3B3"/><path d="M39.134 8.18c.048-.146-.134-.225-.108-.364.095 0 .086-.089.111-.152.064-.239.19-.457.363-.633.114.11.347.054.391.215.034.206.005.418-.083.608-.159.43-.19.45-.636.386 0-.022.038-.038 0-.073-.038-.035-.048 0-.073 0l.035.013z" fill="#fff"/><path d="M46.005 52.638a4.32 4.32 0 01.41-1.703c.033-.082.07-.17.188-.165 0 .504-.07 1.004-.044 1.513.013.222-.312.317-.554.355z" fill="#B3B3B3"/><path d="M40.75 4.094a.945.945 0 01.12-.87c.24-.403.452-.817.707-1.213-.12.628-.299 1.244-.535 1.839a1.656 1.656 0 00-.086.19c-.038.149-.127.054-.2.047l-.006.007z" fill="#fff"/><path d="M39.006 8.14a54.54 54.54 0 00-.318 1.19c0 .021-.06.034-.092.05a1.292 1.292 0 01.22-1.671l.19.43zm8.167 41.548c.146.054.099.184.099.282v1.519a.476.476 0 01-.083.038c-.372.101-.398.088-.347-.298a5.582 5.582 0 01.331-1.541zm1.487-4.564c-.138.09-.106.317-.28.368a4.274 4.274 0 01-.274-2.067c.136.585.369 1.133.553 1.7zm-9.727 7.2a7.17 7.17 0 01.58-1.956c.021-.06.04-.136.126-.145-.095.633-.318 1.24-.318 1.899.02.202-.235.161-.388.202zm.913-41.137c0 .17-.168.237-.26.348a3.477 3.477 0 00-.452.788c-.319-.317-.3-.589.07-.814.19-.15.408-.26.642-.322zm-.359-4.159a1.435 1.435 0 00-.363.633c-.025.063 0 .145-.11.152a1.08 1.08 0 01.17-1.152c.14.082.106.316.319.316l-.016.05zm-6.869 40.258c-.318-.107-.671-.218-.814-.588.186.01.37.04.55.088.318.073.372.235.264.5z" fill="#B3B3B3"/><path d="M23.174 35.934c.058 0 .166-.029.115.095a1.771 1.771 0 00-.073.547c-.188-.177-.226-.332-.096-.522.038-.035.083-.067.064-.13l-.01.01z" fill="#E38AB9"/><path d="M31.797 46.694a.454.454 0 01-.28-.437c.12.127.337.197.28.437zm8.227-17.128c.038-.07.08-.08.121 0 0 .022-.025.057-.041.06-.016.003-.073-.013-.08-.06z" fill="#B3B3B3"/><path d="M42.585 14.823l-.067-.082c.051-.035.09-.02.108.038l-.04.044zm8.638 24.057l.029.088-.029-.089z" fill="#E38AB9"/><path d="M34.781 18.513c.07-.019.102.05.156.07a.685.685 0 00.636.357c.694.029 1.165.472 1.543.988.36.507.62 1.077.767 1.68a.49.49 0 01-.162.535c-.955.893-1.91.912-2.78.035a2.41 2.41 0 01-.535-.858 4.6 4.6 0 01-.274-1.266c0-.17-.076-.186-.216-.174a6.646 6.646 0 01-1.031-.034c.064-.118.165-.076.254-.076a4.33 4.33 0 00.99-.067.399.399 0 00.318-.23 6.402 6.402 0 01-.853-.416c.156-.06.261.054.385.102l.452.168a.195.195 0 00.258-.092c.054-.108-.07-.124-.124-.168-.054-.044-.175-.127-.287-.206a.413.413 0 01.366.149.24.24 0 00.354-.003c.123-.124-.045-.165-.07-.24a1.285 1.285 0 00-.147-.254zm1.683 1.326c-.553-.07-.85.095-1.107.633-.302.614 0 1.627.601 2.032.153.101.319.218.532.108-.519-.317-.637-.826-.659-1.358a1.082 1.082 0 01.827-1.152c-.032-.136-.207-.12-.2-.256.32.149.592.383.786.677 0-.662-1.14-1.548-1.785-1.415.318.263.706.437 1.005.731zm-.878 2.671c.026 0 .064.022.073 0 .01-.022 0-.053-.022-.07l-.169-.246c-.5-.75-.512-1.5-.044-2.124.134-.159.294-.294.474-.399a2.021 2.021 0 00-.573-.095 1.354 1.354 0 00-.954.34c-.188.195-.045.518 0 .778a2.258 2.258 0 001.215 1.816zm1.785-.95c0-.29-.191-.54-.372-.518-.182.022-.23.164-.226.316 0 .26.184.526.362.516.179-.01.226-.186.236-.335v.022zm-2.373-2.36c.152.161.365.142.515.256a.066.066 0 00.079.018.066.066 0 00.023-.018.108.108 0 000-.082.47.47 0 00-.617-.174zm-4.629-4.58c.019-.154.038-.423.085-.686.06-.316.268-.418.567-.247.321.209.558.524.668.89.276.76.478 1.544.604 2.342.051.294.109.588.163.883.019.107.057.228-.045.316-.102.089-.216 0-.318-.054a3.243 3.243 0 01-1.324-1.468 4.646 4.646 0 01-.4-1.975zm1.505 3.033l.359.285a.543.543 0 00.02-.124 13.297 13.297 0 00-.726-3.136 1.683 1.683 0 00-.506-.763c-.245-.202-.318-.168-.401.152a.038.038 0 00-.008.041.04.04 0 00.008.013l-.02.18c-.06.335-.06.678 0 1.013a3.306 3.306 0 001.273 2.339zm11.421 6.785a.468.468 0 01.42.494.423.423 0 01-.401.437.462.462 0 01-.407-.497c.003-.273.155-.443.388-.434zm.292.488c-.016-.184-.082-.317-.276-.342-.194-.026-.274.136-.274.316s.054.317.264.336c.21.019.258-.146.286-.31zm-6.045-12.882l.026-.075c.134 0 .127.123.22.196-.172.038-.191-.092-.245-.12zM23.174 35.926c.02.064-.025.096-.063.13a.12.12 0 01.063-.13zM39.115 8.174c.025 0 .041-.038.073 0 .032.038 0 .05 0 .072-.055 0-.08-.024-.073-.072z" fill="#161315"/><path d="M35.587 22.511a2.275 2.275 0 01-1.235-1.804c-.041-.26-.184-.582 0-.779.262-.232.604-.353.955-.338.194.004.387.036.572.095-.18.105-.34.24-.474.399-.468.633-.455 1.373.045 2.123l.168.247-.032.057z" fill="#fff"/><path d="M36.457 19.834c0 .136.169.12.2.256a1.091 1.091 0 00-.826 1.152c.025.532.14 1.028.658 1.358-.229.11-.378 0-.531-.108-.601-.405-.904-1.418-.601-2.032.257-.525.553-.69 1.107-.633l-.007.006z" fill="#E38AB9"/><path d="M37.37 21.54c0 .139-.018.316-.235.316-.216 0-.356-.257-.362-.516 0-.161.035-.317.226-.317.19 0 .365.235.372.516zm-1.737.914c.03 0 .045.044.023.07-.023.025-.048 0-.073 0l.05-.07z" fill="#fff"/><path d="M30.594 14.3c.16.194.105.437.175.652a9.809 9.809 0 001.085 2.583c.022.029 0 .076.02.117a3.322 3.322 0 01-1.273-2.339 2.835 2.835 0 01-.007-1.013zm.026-.233a.119.119 0 010 .041h-.02a.038.038 0 01.02-.04z" fill="#E38AB9"/><path d="M43.587 24.925c-.025.165-.082.317-.286.317-.204 0-.26-.162-.264-.336-.003-.174.067-.316.274-.316.206 0 .257.152.276.335z" fill="#B3B3B3"/><path d="M69.413 28.692c.137-.51.048-1.172.85-1.229.435.156.795-.11 1.183-.215 1.366.633 1.498 1.773.395 3.418-.796.551-1.273-.25-1.874-.452l-.554-1.522zm-4.671-18.75c1.343-.24 2.116.69 2.09 2.532-.216 1-1.053.826-1.753.921-.404-.038-.563-.427-.871-.604a.316.316 0 00-.121-.187c-.675-.617-.513-1.291-.144-1.984.538.088.475-.526.799-.678z" fill="#F7AAAB"/><path d="M55.414 54.201c1.76-.702 3.55-1.345 5.005-2.617.194-.174.318-.08.416.104-.025.557-.483.766-.856 1.042-.286.098-.524.288-.83.402.318-.042.522-.349.846-.273.182.051.319.146.284.355-.032.07-.102.152-.086.209.267 1.003-.054 1.775-1.07 2.013-1.014.237-2.15.576-2.993-.497l-.602-.27-.515-.075c-.162-.428.15-.38.4-.393zm14.899-13.672c-.54.975-1.164 1.88-2.138 2.487-.636-.493-.22-1.136-.229-1.712 0-.183 0-.262-.2-.247-.06 0-.121-.079-.172-.107a.86.86 0 01.153.272 3.94 3.94 0 01-.137 2.383l-.436.152c-.111-1.373-.668-2.731-.185-4.133.045-.18.086-.361.13-.541.745-.513.955.091 1.235.572.128.352.172.804.751.595.302-.098.41-.37.554-.61a.93.93 0 01.318-.317.374.374 0 01.302.022.566.566 0 01.169.43 2.589 2.589 0 00-.115.754zm-.375-17.046c.578-.776.318-1.624.225-2.46.296-.05.605.07.9-.06.49-.066.955-.392 1.468-.164.066.2.136.399.203.601-.318 1.367-.277 2.902-1.813 3.716-.233.123-.245.633-.389.95-.143.316-.318.208-.46-.036h-.023c.092-.398-.051-.857.29-1.196.177-.201.342-.413.496-.633a2.68 2.68 0 00.712-1.544c-.75.262-.817.867-.9 1.462a.875.875 0 01-.286.585c-.188.07-.319.045-.335-.193.017-.338-.318-.661-.088-1.028z" fill="#AAB87B"/><path d="M70.924 20.333c.086.317.229.633.073.95l-.834-.266c-.658-1.807-1.027-3.75-2.459-5.2-.063-.12-.13-.24-.197-.36-.796-.748-1.94-1.109-2.428-2.191.506-.437 1.381-.089 1.753-.813.048.392.093.785.14 1.18-.022.5.506.586.704.921.286.23.538.499.75.798.225.44.484.864.773 1.266a9.423 9.423 0 011.114 2.415c.064.256.105.517.121.781.035.418.156-.155.239 0 .257.089.276.291.25.52z" fill="#B0BB84"/><path d="M70.74 35.91c.165-1.227.228-2.449-.153-3.655 0-.744-.548-1.32-.637-2.041.144-.14.344-.317.49-.117.353.5.872.506 1.384.57l-.496.88c-.143.47.156.898.127 1.357 0 .155.02.316.029.472.035.316.048.633.054.949 0 1.05-.106 2.098-.318 3.127-.13.415-.242.839-.401 1.247-.172.269-.255.633-.694.608l-.178.063c-.108-1.228.334-2.345.792-3.46z" fill="#B0BA84"/><path d="M51.708 4.176a1.103 1.103 0 00-.093-.155c.204-.478.713-.51 1.088-.738.302-.124.628-.18.955-.164.106-.003.213.005.318.022.455.079.913.14 1.374.193a7.93 7.93 0 012.422.756c.138.07.27.151.394.244.086.063.147.19.29.152a.39.39 0 01-.169-.285c.06-.608.452-.886.999-1.016a.602.602 0 01.372.317c.069.143.11.297.121.455 0 .146 0 .292.038.437.09.22.162.446.214.677 0 .428-.264.602-.637.684l-1.705-.807-.636-.212c-.713 0-1.362-.316-2.05-.453-1.017-.19-2.039-.367-3.08-.136a.476.476 0 00-.215.029z" fill="#B1BD87"/><path d="M68.318 15.409c-.239-.247-.665-.298-.754-.706a.95.95 0 01-.334-.924.464.464 0 01.34-.358c1.11-.209 1.193.921 1.696 1.336-.379-.687-.636-1.434-.197-2.27l.668-.177c.54.633.394 1.466.697 2.165l-.178.082c-.198.928-.83 1.099-1.655.95a.44.44 0 01-.283-.098z" fill="#F7AAAB"/><path d="M53.648.154l.391-.136a2.182 2.182 0 011.858 1.421c.102.769 0 1.45-.789 1.845a4.72 4.72 0 01-1.234 0c-.344-.102-.754.022-1.034-.295-.319-.468-.57-.95-.303-1.531.716-.095 1.098.965 1.88.468-.317-.351-.833-.633-1.033-1.184a.591.591 0 01.264-.588z" fill="#F8ABAA"/><path d="M68.14 39.93c-.207-.462-.29-1.079-1.056-.858.092-.341-.198-.427-.379-.607a.6.6 0 01-.095-.744c.156-.278.362-.168.588-.082.678.26.828-.377 1.158-.706.71.399.525 1.095.583 1.712.009.383-.037.764-.137 1.133-.137.358-.35.51-.662.152z" fill="#fff"/><path d="M68.47 32.695c.264.633.541 1.266.17 1.934-.497.51-.978.133-1.464-.022l-.118-.222c-.309-1.221-.2-1.351 1.412-1.69z" fill="#BDB0D0"/><path d="M69.814 35.199a.821.821 0 01.697.785c-.035.382 0 .784-.357 1.063a1.49 1.49 0 01-.789.25 1.09 1.09 0 01-.467-.12 1.712 1.712 0 01-.605-.697c-.184-.272-.369-.544-.55-.82a.846.846 0 01.636-.534l.143.038.318.164c.319.105.338.466.538.684.191-.266.172-.614.436-.813z" fill="#BCB1CD"/><path d="M59.292 3.274c-.242.37-.824.443-.869.985-.283.29-.423-.076-.636-.137a.78.78 0 01-.379-.42c.15-.2-.133-.349-.067-.542.344-.512.726-.95 1.445-.715.36.168.757.304.506.83z" fill="#BEB5CC"/><path d="M62.862 51.792l-.13-.167c-.21-.13-.564.092-.678-.276-.054-.617.225-1.145.47-1.683a.478.478 0 01.29-.13c.461.095.55.443.573.835.022.49.932.336.731.988l-1.081.433a.225.225 0 00-.175 0z" fill="#B0B680"/><path d="M64.83 47.438l-1.494.608a.19.19 0 01-.128-.288c.029-.342.06-.684.09-1.023a.315.315 0 00.015-.218l.3-.633c1.062.006.77 1.07 1.218 1.554z" fill="#B3B583"/><path d="M59.496 3.683c.071-.018.141-.04.21-.067.385-.101.54-.433.741-.721l.452-.124.366.839-.09.019a.891.891 0 01-.289.566c-.445.317-.881.485-1.273-.066a4.591 4.591 0 00-.117-.446z" fill="#BAAFCE"/><path d="M67.175 34.607c.494-.317.974.19 1.464.022l-.108.535-.064-.054c-.299 0-.49.288-.786.317-.082-.333-.528-.43-.505-.82z" fill="#B4B99D"/><path d="M68.292 36.48l.595.517c0 .047.032.091.045.139.146.31.227.647.239.99a1.236 1.236 0 01-.147.58.26.26 0 01-.27.079c-.249-.592-.051-1.266-.398-1.852-.022-.148-.045-.3-.064-.452z" fill="#B2BC89"/><path d="M57.348 3.16c.073.152.34.253.12.478-.45.202-.728 0-.954-.383a.396.396 0 01.204-.411h.223l.407.316z" fill="#BAC094"/><path d="M67.682 35.417c.13-.43.37-.595.786-.316a.916.916 0 01-.725.55 5.958 5.958 0 01-.06-.234z" fill="#A9B772"/><path d="M62.016 5.347l.254.12c.98.95 1.19 2.409.548 3.798a15.662 15.662 0 00-3.43-3.481l.506-.706c.878.234 1.368.899 1.797 1.535a1.5 1.5 0 01-.124-.601c.06-.298.048-.633.449-.665z" fill="#ACB97E"/><path d="M69.07 12.488c.08.797.159 1.582.241 2.443-.655-.468-.976-1.244-1.74-1.51.067-1.003.54-1.35 1.499-.933z" fill="#F58A8A"/><path d="M62.818 9.25c.19-1.293 0-2.612-.548-3.799 1.012.203 1.254.985 1.4 1.836-.111.342-.025.715-.162 1.054-.137.339-.105.874-.69.908z" fill="#98A764"/><path d="M64.742 9.943c-.064.218-.121.437-.191.652-.048.155.137.427-.15.452-.286.026-.34-.256-.458-.443a.771.771 0 01.799-.661z" fill="#F18C91"/><path d="M67.23 13.78l.334.923c-.318-.284-.916-.42-.592-1.063l.258.14z" fill="#EAE9D7"/><path d="M63.508 8.344a1.146 1.146 0 01.162-1.054c.047.216.098.434.15.65l-.313.404z" fill="#AFBB85"/><path d="M71.216 33.297l.077-.273c.245-.389-.401-.87.127-1.234l.694-.212c.502.317.46.83.505 1.307.023.27.048.469.366.215.856-.338.742.345.847.795-.112.133-.22.269-.319.402-.954.769-1.186.75-1.908-.146-.166-.269-.172-.608-.389-.854z" fill="#F8ACAA"/><path d="M73.107 33.167c-.318.164-.166.69-.605.807-.13-.81-.26-1.605-.388-2.396.417-.316.83-.408 1.25 0 .487.614.28 1.13-.257 1.589z" fill="#F18585"/><path d="M71.618 33.883c.483.81 1.155.737 1.886.401.093.374-.14.672-.229 1.004l-1.03.61c-.201.118-.344 0-.475-.13a2.3 2.3 0 01-.318-1.208 1.043 1.043 0 01.166-.677z" fill="#B0BB84"/><path d="M73.106 33.167c.102-.529.557-1.003.258-1.582.926.633 1.438 1.326.468 2.326-.513.006-.086-.893-.726-.744z" fill="#F8ABAB"/><path d="M71.445 27.236c-.378.155-.556 1.409-1.186.215.328-.433.69-.61 1.186-.215z" fill="#F59599"/><path d="M71.42 31.79c-.178.399.162.848-.127 1.234-.048-.493-.554-1.003.05-1.478l.077.244z" fill="#F7EBE4"/><path d="M64.831 47.438c-.659-.317-.528-1.266-1.222-1.548.37-.661-.057-1.962 1.416-1.722a1.043 1.043 0 001.07.146c.521.377.49 1.003.693 1.522-.493.725-1.063 1.361-1.957 1.602z" fill="#F7AAAB"/><path d="M66.094 44.327c-.451.633-.817.658-1.069-.146.376-.11.754-.215 1.07.146z" fill="#F38E91"/><path d="M63.209 47.757c.044.095.086.19.127.288.041.098.064.263.092.392.258.634-.108.934-.604 1.175l-.258.101c-.398.848-.655 1.82-1.797 2.006l-.347-.136a19.865 19.865 0 002.787-3.826z" fill="#B2BF8C"/><path d="M55.414 54.202c-.165.098-.363.167-.4.392-.3.076-.599.142-.806-.282.41-.136.786-.272 1.206-.11z" fill="#BDC49D"/><path d="M50.456 1.167c.528.316 1.114.538 1.515 1.034.027.14.027.282 0 .421-.067.225-.093.46-.137.69-.045.231-.274.333-.334.545a.35.35 0 01-.09.218c-1.864.494-2.058.424-2.51-.915.319-.345-.031-.633-.076-.949.095-.344.313-.64.615-.834a1.457 1.457 0 011.017-.21z" fill="#F8ABAC"/><path d="M51.395 4.075c-.022-.073-.041-.146-.064-.222.3-.178.522-.463.62-.797.125-.168.242-.349.497-.298.067.136.13.275.197.411.083.083.248.064.27.222-.317.468-.877.396-1.3.633l-.105.038-.115.013z" fill="#ABB976"/><path d="M48.809 2.198c.34.225.636.478.592.93-.17.027-.343.038-.516.032-.127-.313-.305-.61-.076-.962z" fill="#F59095"/><path d="M71.97 35.782l.274.145c-.133.614-.268 1.228-.404 1.842-.553.902-.827 1.956-1.543 2.767-.283-.254-.318-.507 0-.757a3.67 3.67 0 01.398-.95 7.54 7.54 0 00.493-1.265c.261-.611-.01-1.43.783-1.782z" fill="#B1BC8A"/><path d="M67.574 43.595c-.137-1.028.178-2.095-.274-3.108 1.575.43.48 1.716.86 2.532a1.164 1.164 0 01-.586.576z" fill="#96A664"/><path d="M60.768 51.72c.738-.548 1.231-1.307 1.798-2.007.184.633-.319 1.07-.408 1.624-.48.87-1.314 1.234-2.205 1.516a.204.204 0 01-.162-.196.2.2 0 01.02-.089l.957-.848z" fill="#F6F8EF"/><path d="M58.16 53.9c-.455.687-.862 1.127-1.591.805-.14-.06-.337-.203-.239-.34.43-.594 1.098-.382 1.83-.464z" fill="#93A361"/><path d="M59.883 52.8a12.25 12.25 0 002.275-1.462l.573.288-2.507 1.506-.296-.13a.13.13 0 01-.08-.126c.007-.045.02-.073.035-.076z" fill="#B8C293"/><path d="M59.884 52.8c.019.066.032.132.044.202l-.862.278-.089-.133.837-.591c.022.088.044.164.07.243z" fill="#D2DBB4"/><path d="M68.754 38.785l.143-.057c.538 0 .09-.417.232-.592-.05-.38-.337-.712-.235-1.123l.302.133c.252.131.453.343.57.601.245.665 0 1.301-.121 1.944-.123.293-.23.593-.318.898-.484-.053-1.206.317-1.184-.633.936-.016.204-.895.611-1.17z" fill="#BAC597"/><path d="M69.499 39.776c.06-.665.124-1.333.185-2 0-.374.27-.634.442-.91l.385-.882.229-.073c0 1.215-.474 2.326-.773 3.481-.067.102-.134.203-.204.317a.168.168 0 01-.194.101.171.171 0 01-.07-.035z" fill="#F6F7F1"/><path d="M70.752 38.892a1.51 1.51 0 01-.448.87c-.051-.145-.106-.29-.156-.44l.5-.67c.155.028.193.107.104.24z" fill="#C3CE9D"/><path d="M69.499 39.775l.264-.085a1.215 1.215 0 01-.44.883.807.807 0 01.176-.798z" fill="#E8EEDB"/><path d="M64.408 48.337c.85-.079 1.244.282 1.104 1.146-.199.385-.51.7-.894.904-.384.204-.82.287-1.253.238.044-.902.267-1.718 1.043-2.288z" fill="#F58C8D"/><path d="M63.352 50.432c.846-.029 1.464-.586 2.16-.95.659 1.45-.665 1.45-1.393 1.88-.092-.573-1.04-.145-1.009-.858.051-.12.13-.145.242-.072z" fill="#F8ACAA"/><path d="M63.351 50.432l-.241.073a.775.775 0 00-.287-.893l.605-1.174c.318-.168.604-.525.98-.101-.315.715-.544 1.478-1.057 2.095z" fill="#F7A9AB"/><path d="M70.415 24.15c-.112-1.05.404-1.636 1.45-1.899-.038.861-.248 1.602-.862 2.19a1.788 1.788 0 01-.588-.29z" fill="#99A866"/><path d="M70.414 24.15a.427.427 0 01.516.141.42.42 0 01.073.176c-.204.149-.407.297-.608.45a.348.348 0 01-.089-.178c.035-.206.07-.396.108-.589z" fill="#8E9E59"/><path d="M68.5 15.39c.702-.032 1.364-.153 1.755-.833.03.073.09.155.08.218-.356 1.9.512 3.694.589 5.558l-.373-.434c-.292-.104-.264-.383-.334-.607a6.04 6.04 0 00-1.247-2.966 1.04 1.04 0 01-.47-.937z" fill="#B3BA87"/><path d="M69.04 16.181c1.088.747 1.161 1.9 1.273 3.06-.045.124-.115.146-.213.051l-1.235-2.775c-.143-.219-.057-.314.175-.336z" fill="#F8FAF4"/><path d="M69.04 16.18c-.056.111-.11.225-.168.336a1.24 1.24 0 01-.557-1.108l.182-.019.544.791z" fill="#E9F2DA"/><path d="M70.11 19.292l.212-.05.23.658c0 .076.022.17 0 .228-.09.133-.179.066-.214-.051-.092-.26-.156-.522-.229-.785z" fill="#EFF3E9"/><path d="M69.814 35.199c.092.525-.16.968-.407 1.804-.252-.772-.398-1.225-.548-1.674.277-.358.586-.478.955-.13z" fill="#9E8CBC"/><path d="M71.97 35.781a328.5 328.5 0 00-.661 1.9c-.175.094-.296.088-.296-.156.099-1.082.194-2.164.293-3.25.168-.076.302-.098.242.165.14.44.28.883.423 1.341z" fill="#F8FAF3"/><path d="M71.013 37.522l.296.155a2.188 2.188 0 01-.556 1.216l-.106-.24c.105-.38.093-.802.366-1.13z" fill="#E2E9D0"/><path d="M71.548 34.436l-.242-.165c-.032-.316-.06-.633-.09-.974.287.1.3.38.402.598-.032.18-.032.36-.07.541z" fill="#FAEBED"/><path d="M61.678 5.945c.21.336.3.731.258 1.124-.722-.715-1.38-1.37-2.042-2.022l-.424-.633c.716-.092 1.235.256 1.693.743.245.207.425.481.515.788z" fill="#F7F9F2"/><path d="M61.055 5.398c-.459-.44-.923-.867-1.591-.984l.146-.285a1.23 1.23 0 001.228-.105c.178.095.36.18.541.272l.28.633c.115.576-.232.538-.604.469z" fill="#BFC6A1"/><path d="M56.556 3.182l.913.462.375.317c.147.215.064.316-.171.316l-2.45-.753a.175.175 0 01-.086-.225.175.175 0 01.054-.07 1.101 1.101 0 011.365-.047z" fill="#F7F9F2"/><path d="M57.672 4.294l.172-.317.58.291.636.583-.093.164-1.295-.721z" fill="#E9EEDF"/><path d="M55.146 3.303l.077.237c-.459-.041-.933 0-1.35-.26l1.168-.139c.07 0 .109.035.115.08.006.044.006.079-.01.082z" fill="#F0E1D2"/><path d="M52.916 3.392l-.27-.222.436-.133.808.247-.974.108z" fill="#F7E9D8"/><path d="M52.764 1.4a.869.869 0 01.763-.727l1.865 1.762c-1.11-.367-2.26.409-2.628-1.035z" fill="#F4898B"/><path d="M55.146 3.303a.294.294 0 00-.102-.162c.586-.446.602-1.117.703-1.753.662.263.78.886.98 1.456l-.172.338-1.409.12z" fill="#AEB97E"/><path d="M63.67 7.297a6.528 6.528 0 00-1.4-1.835c0-.548.13-.95.668-.361a2.53 2.53 0 01.732 2.196z" fill="#AFBB85"/><path d="M61.055 5.398c.27-.067.528-.146.61-.456.118.133.233.27.35.405-.11.2-.222.399-.337.598l-.623-.547z" fill="#D1D9BB"/><path d="M61.385 4.297c-.267.079-.636.338-.54-.273l.343-.395c.067.221.13.446.197.668z" fill="#AAB678"/><path d="M70.125 36.867a.8.8 0 01-.449.909c-.347-.076-.407-.37-.493-.633l.942-.276z" fill="#AFBA86"/><path d="M52.449 2.759l-.36.357-.14-.076a.553.553 0 01-.089-.595l.105-.243c.213.151.445.272.484.557z" fill="#BBB68B"/><path d="M60.45 2.895a1.059 1.059 0 00.255.965l-.996-.244c-.092-.595.245-.75.741-.721z" fill="#9A88BA"/><path d="M68.894 37.013l.378 1.32c-.178.104-.318.12-.273-.152-.038-.39-.347-.753-.105-1.168z" fill="#F9FCF6"/><path d="M68.999 38.18l.273.153c-.028.208-.054.417-.082.632l-.293-.23c.035-.19.067-.374.102-.554z" fill="#E8ECDB"/><path d="M52.089 3.116c-.038.462-.366.633-.757.737-.23-.37.375-.316.318-.589a.315.315 0 01.3-.19.32.32 0 01.123.029l.016.013z" fill="#BBB68B"/><path d="M52.067 3.103l-.423.161a.706.706 0 01.222-.82l.2.66z" fill="#E2B29B"/><path d="M11.584 28.692c-.134-.51-.048-1.172-.846-1.229-.436.156-.796-.11-1.187-.215-1.364.633-1.494 1.773-.391 3.418.795.551 1.272-.25 1.87-.452l.554-1.522zm4.674-18.75c-1.346-.24-2.12.69-2.09 2.532.216 1 1.052.826 1.75.921.406-.038.566-.427.87-.604a.37.37 0 01.122-.187c.674-.617.515-1.291.146-1.984-.54.088-.474-.526-.798-.678z" fill="#F7AAAB"/><path d="M25.587 54.201c-1.76-.696-3.551-1.329-5.008-2.617-.191-.174-.319-.08-.417.104.025.557.487.766.859 1.042.283.098.522.288.827.402-.318-.042-.518-.349-.846-.273-.178.051-.3.146-.28.355.028.07.102.152.086.209-.27 1.003.054 1.775 1.069 2.013 1.015.237 2.15.576 2.994-.497l.598-.27.515-.075c.162-.428-.146-.38-.398-.393zM10.703 40.529c.54.975 1.164 1.88 2.138 2.487.636-.493.22-1.136.226-1.712 0-.183 0-.262.203-.247.058 0 .118-.079.172-.107a.863.863 0 00-.153.272 3.914 3.914 0 00.137 2.383l.436.152c.108-1.373.665-2.731.185-4.133-.045-.18-.09-.361-.13-.541-.745-.513-.955.091-1.235.572-.128.352-.175.804-.754.595-.3-.098-.408-.37-.55-.61a.93.93 0 00-.319-.317.372.372 0 00-.302.022.582.582 0 00-.172.43c.076.245.116.498.118.754zm.36-17.046c-.58-.776-.319-1.624-.226-2.46-.3-.05-.608.07-.9-.06-.49-.066-.955-.392-1.47-.164l-.195.601c.319 1.367.277 2.902 1.814 3.716.232.123.242.633.388.95.146.316.318.208.461-.036h.02c-.093-.398.053-.857-.29-1.196a7.802 7.802 0 01-.496-.633 2.725 2.725 0 01-.713-1.544c.75.262.82.867.904 1.462a.862.862 0 00.286.585c.188.07.318.045.334-.193-.022-.338.312-.661.083-1.028z" fill="#AAB87B"/><path d="M10.073 20.333c-.083.317-.23.633-.07.95l.833-.266c.656-1.807 1.028-3.75 2.457-5.2l.2-.36c.792-.748 1.938-1.109 2.428-2.191-.51-.437-1.384-.089-1.754-.813-.047.392-.095.785-.14 1.18.023.5-.505.586-.703.921a3.99 3.99 0 00-.754.798 9.107 9.107 0 01-.773 1.266 9.406 9.406 0 00-1.104 2.42 3.99 3.99 0 00-.12.783c-.039.417-.157-.155-.242 0-.261.082-.284.284-.258.512z" fill="#B0BB84"/><path d="M10.26 35.91c-.168-1.227-.228-2.449.154-3.655 0-.744.547-1.32.617-2.041-.14-.14-.344-.317-.487-.117-.353.5-.872.506-1.384.57.165.294.318.588.493.88.143.47-.153.898-.127 1.357 0 .155-.016.316-.029.472-.032.316-.048.633-.05.949-.003 1.05.104 2.098.317 3.127.13.415.242.839.398 1.247.172.269.255.633.697.608l.178.063c.124-1.228-.321-2.345-.776-3.46z" fill="#B0BA84"/><path d="M29.29 4.176c.029-.054.06-.105.092-.155-.203-.478-.71-.51-1.085-.738a2.238 2.238 0 00-.954-.164 1.758 1.758 0 00-.318.022c-.455.079-.913.14-1.371.193a7.943 7.943 0 00-2.428.756 2.72 2.72 0 00-.391.244c-.09.063-.147.19-.29.152a.377.377 0 00.165-.285c-.05-.608-.439-.886-.989-1.019a.602.602 0 00-.372.317 1.203 1.203 0 00-.124.455c0 .146 0 .291-.035.437a3.892 3.892 0 00-.213.69c0 .427.264.601.636.684l1.702-.807.636-.213c.716 0 1.362-.316 2.05-.452 1.02-.19 2.042-.367 3.08-.136a.47.47 0 01.209.019z" fill="#B1BD87"/><path d="M12.682 15.409c.238-.247.665-.298.75-.706a.948.948 0 00.338-.924.47.47 0 00-.344-.358c-1.107-.209-1.193.921-1.696 1.336.382-.687.637-1.434.197-2.27l-.668-.177c-.54.633-.394 1.466-.696 2.165l.178.082c.2.928.833 1.099 1.654.95a.444.444 0 00.287-.098z" fill="#F7AAAB"/><path d="M27.361.154l-.4-.136a2.199 2.199 0 00-1.137.442 2.184 2.184 0 00-.722.979c-.102.769 0 1.45.79 1.845a4.72 4.72 0 001.234 0h-.016c.343-.102.75.022 1.034-.295.318-.468.57-.95.318-1.531-.735-.095-1.1.965-1.896.458.318-.35.833-.633 1.03-1.183a.593.593 0 00-.235-.58z" fill="#F8ABAA"/><path d="M12.86 39.93c.207-.462.29-1.079 1.057-.858-.096-.341.197-.427.378-.607a.598.598 0 00.093-.744c-.156-.278-.36-.168-.586-.082-.68.26-.827-.377-1.158-.706-.71.399-.528 1.095-.582 1.712-.012.382.033.764.133 1.133.137.358.35.51.665.152z" fill="#fff"/><path d="M12.525 32.695c-.26.633-.54 1.266-.168 1.934.496.51.98.133 1.463-.022l.121-.222c.306-1.221.197-1.351-1.416-1.69z" fill="#BDB0D0"/><path d="M11.183 35.199a.828.828 0 00-.684.785c.038.382 0 .784.36 1.063.232.156.505.242.785.25.164-.005.325-.046.471-.12.261-.174.47-.414.605-.697l.55-.82a.846.846 0 00-.636-.534l-.143.038-.319.164c-.318.105-.337.466-.537.684-.204-.266-.182-.614-.452-.813z" fill="#BCB1CD"/><path d="M21.707 3.274c.242.37.825.443.866.985.286.29.426-.076.636-.137a.774.774 0 00.382-.42c-.15-.2.134-.349.064-.542-.34-.512-.726-.95-1.442-.715-.36.168-.757.304-.506.83z" fill="#BEB5CC"/><path d="M18.135 51.792l.127-.167c.21-.13.567.092.678-.276.054-.617-.226-1.145-.468-1.683a.485.485 0 00-.29-.13c-.464.095-.55.443-.572.835-.022.49-.935.336-.732.988l1.082.433a.224.224 0 01.175 0z" fill="#B0B680"/><path d="M16.17 47.438l1.491.608a.188.188 0 00.159-.201.185.185 0 00-.031-.087l-.086-1.023a.315.315 0 010-.218 37.37 37.37 0 01-.3-.633c-1.081.006-.785 1.07-1.234 1.554z" fill="#B3B583"/><path d="M21.491 3.683a1.474 1.474 0 01-.21-.067c-.385-.101-.54-.433-.74-.721l-.453-.124c-.124.279-.245.56-.369.839l.09.019a.907.907 0 00.289.566c.445.317.884.485 1.273-.066.047-.149.082-.298.12-.446z" fill="#BAAFCE"/><path d="M13.821 34.607c-.49-.317-.954.19-1.46.022.035.177.07.358.108.535l.064-.054c.299 0 .49.288.782.317.083-.333.528-.43.506-.82z" fill="#B4B99D"/><path d="M12.707 36.48l-.598.517c0 .047-.029.091-.045.139a2.65 2.65 0 00-.238.99c.001.202.051.4.146.58a.264.264 0 00.27.079c.252-.592.055-1.266.401-1.852.023-.148.042-.3.064-.452z" fill="#B2BC89"/><path d="M23.648 3.16c-.07.152-.34.253-.117.478.448.202.725 0 .954-.383a.404.404 0 00-.207-.411h-.22l-.41.316z" fill="#BAC094"/><path d="M13.315 35.417c-.13-.43-.369-.595-.782-.316a.914.914 0 00.725.55l.057-.234z" fill="#A9B772"/><path d="M18.982 5.347l-.252.12c-.98.95-1.193 2.409-.55 3.798a15.677 15.677 0 013.433-3.481l-.506-.706c-.878.234-1.371.899-1.8 1.535.085-.19.128-.394.127-.601-.064-.298-.051-.633-.452-.665z" fill="#ACB97E"/><path d="M11.928 12.488c-.077.797-.156 1.582-.242 2.443.655-.468.98-1.244 1.74-1.51-.063-1.003-.54-1.35-1.498-.933z" fill="#F58A8A"/><path d="M18.18 9.25a6.696 6.696 0 01.55-3.799c-1.009.203-1.25.985-1.397 1.836.112.342.026.715.16 1.054.133.339.104.874.687.908z" fill="#98A764"/><path d="M16.257 9.943c.064.218.121.436.188.652.051.155-.134.427.15.452.283.026.34-.256.461-.443a.774.774 0 00-.799-.661z" fill="#F18C91"/><path d="M13.77 13.78l-.337.923c.318-.284.92-.42.595-1.063l-.258.14z" fill="#EAE9D7"/><path d="M17.499 8.344a1.133 1.133 0 00-.16-1.054c-.05.216-.098.434-.149.65l.309.404z" fill="#AFBB85"/><path d="M9.783 33.297a8.862 8.862 0 01-.08-.273c-.241-.389.405-.87-.123-1.234l-.697-.212c-.5.317-.461.83-.503 1.307-.022.27-.047.469-.369.215-.856-.338-.738.345-.843.795l.318.402c.955.769 1.187.75 1.91-.146.165-.269.168-.608.387-.854z" fill="#F8ACAA"/><path d="M7.89 33.167c.318.164.165.69.607.807l.385-2.396c-.413-.316-.83-.408-1.247 0-.487.614-.283 1.13.255 1.589z" fill="#F18585"/><path d="M9.38 33.883c-.481.81-1.156.737-1.884.401-.093.374.136.672.229 1.004l1.027.61c.204.118.344 0 .478-.13.215-.365.326-.784.318-1.208a1.065 1.065 0 00-.169-.677z" fill="#B0BB84"/><path d="M7.89 33.167c-.101-.529-.553-1.003-.254-1.582-.929.633-1.438 1.326-.468 2.326.51.006.086-.893.723-.744z" fill="#F8ABAB"/><path d="M9.545 27.236c.382.155.56 1.409 1.187.215-.321-.433-.697-.61-1.187-.215z" fill="#F59599"/><path d="M9.58 31.79c.178.399-.163.848.124 1.234.05-.493.556-1.003-.051-1.478a5.442 5.442 0 01-.074.244z" fill="#F7EBE4"/><path d="M16.168 47.438c.659-.317.529-1.266 1.219-1.548-.366-.661.057-1.962-1.413-1.722a1.046 1.046 0 01-1.069.146c-.525.377-.49 1.003-.693 1.522.493.725 1.06 1.361 1.956 1.602z" fill="#F7AAAB"/><path d="M14.905 44.327c.452.633.818.658 1.07-.146-.386-.11-.755-.215-1.07.146z" fill="#F38E91"/><path d="M17.788 47.757l-.124.288-.095.392c-.255.634.108.934.604 1.175l.261.101c.398.848.655 1.82 1.798 2.006l.346-.136a19.748 19.748 0 01-2.79-3.826z" fill="#B2BF8C"/><path d="M25.586 54.202c.165.098.36.167.398.392.318.076.6.142.808-.282-.41-.136-.79-.272-1.206-.11z" fill="#BDC49D"/><path d="M30.543 1.167c-.525.316-1.113.538-1.514 1.035a1.08 1.08 0 00.019.42c.067.226.092.46.137.69.044.232.27.333.318.545.002.08.032.158.086.218 1.864.494 2.061.425 2.51-.914-.318-.345.035-.633.076-.95a1.44 1.44 0 00-.614-.834 1.454 1.454 0 00-1.018-.21z" fill="#F8ABAC"/><path d="M29.589 4.075c.022-.073.044-.146.064-.222a1.393 1.393 0 01-.608-.797c-.121-.168-.239-.349-.497-.298l-.194.424c-.082.082-.248.063-.273.222.318.468.881.395 1.301.633l.108.038h.099z" fill="#ABB976"/><path d="M32.188 2.198c-.34.225-.636.478-.591.93.17.027.343.038.515.032.13-.313.305-.61.076-.962z" fill="#F59095"/><path d="M9.03 35.782l-.278.145c.136.614.27 1.228.404 1.842.557.902.83 1.956 1.547 2.767.283-.254.318-.507 0-.757a3.563 3.563 0 00-.398-.95c-.2-.406-.366-.83-.493-1.265-.267-.611.01-1.43-.783-1.782z" fill="#B1BC8A"/><path d="M13.426 43.595c.134-1.028-.178-2.095.274-3.108-1.591.43-.48 1.716-.86 2.532.118.257.326.462.586.576z" fill="#96A664"/><path d="M20.232 51.72c-.739-.548-1.232-1.307-1.798-2.007-.185.633.318 1.07.404 1.624.484.87 1.317 1.234 2.208 1.516a.205.205 0 00.163-.196.202.202 0 00-.02-.089l-.957-.848z" fill="#F6F8EF"/><path d="M22.837 53.9c.459.687.866 1.127 1.591.805.14-.06.338-.203.236-.34-.423-.594-1.091-.382-1.827-.464z" fill="#93A361"/><path d="M21.116 52.8a12.144 12.144 0 01-2.274-1.462l-.576.288 2.51 1.506.293-.13a.127.127 0 00.08-.126c-.004-.045-.017-.073-.033-.076z" fill="#B8C293"/><path d="M21.116 52.8c-.02.066-.035.132-.048.202l.862.278.093-.133-.834-.591c-.025.088-.05.164-.073.243z" fill="#D2DBB4"/><path d="M12.242 38.785l-.14-.057c-.537 0-.089-.417-.235-.592.054-.38.337-.712.239-1.123l-.3.133a1.269 1.269 0 00-.569.601c-.248.665 0 1.301.121 1.944.122.293.228.593.318.898.484-.053 1.203.317 1.184-.633-.942-.016-.21-.895-.617-1.17z" fill="#BAC597"/><path d="M11.501 39.776c-.063-.665-.124-1.333-.188-2 0-.374-.27-.634-.439-.91l-.375-.882-.226-.073c0 1.215.474 2.326.77 3.481l.204.317a.171.171 0 00.186.095.173.173 0 00.068-.029z" fill="#F6F7F1"/><path d="M10.245 38.892c.05.332.21.637.452.87.05-.145.102-.29.156-.44-.169-.221-.319-.446-.503-.67-.169.028-.191.107-.105.24z" fill="#C3CE9D"/><path d="M11.502 39.775l-.268-.085a1.215 1.215 0 00.443.883.807.807 0 00-.175-.798z" fill="#E8EEDB"/><path d="M16.589 48.337c-.85-.079-1.241.282-1.104 1.146.2.384.513.699.897.903.384.204.82.287 1.253.24-.047-.903-.273-1.72-1.046-2.289z" fill="#F58C8D"/><path d="M17.648 50.432c-.85-.029-1.464-.586-2.163-.95-.656 1.45.664 1.45 1.396 1.88.092-.573 1.04-.145 1.009-.858-.051-.12-.13-.145-.242-.072z" fill="#F8ACAA"/><path d="M17.648 50.432l.242.073a.778.778 0 01.283-.893l-.604-1.17c-.318-.168-.605-.526-.98-.102.318.712.544 1.475 1.06 2.092z" fill="#F7A9AB"/><path d="M10.585 24.15c.108-1.05-.404-1.636-1.454-1.899a3.021 3.021 0 00.865 2.19 1.79 1.79 0 00.589-.29z" fill="#99A866"/><path d="M10.585 24.15a.427.427 0 00-.515.141.42.42 0 00-.073.176l.607.45a.348.348 0 00.09-.178c-.036-.206-.074-.396-.109-.589z" fill="#8E9E59"/><path d="M12.5 15.39c-.703-.032-1.365-.153-1.76-.833-.025.073-.088.155-.075.218.356 1.9-.513 3.694-.592 5.558l.372-.434c.296-.104.267-.383.334-.607a6.047 6.047 0 011.25-2.966 1.046 1.046 0 00.471-.937z" fill="#B3BA87"/><path d="M11.956 16.181c-1.088.747-1.16 1.9-1.272 3.06.047.124.117.146.213.051.424-.924.837-1.85 1.237-2.775.15-.219.055-.314-.178-.336z" fill="#F8FAF4"/><path d="M11.957 16.18l.168.336a1.267 1.267 0 00.557-1.108l-.185-.019-.54.791z" fill="#E9F2DA"/><path d="M10.887 19.292l-.213-.05-.23.658c0 .076-.022.17.017.228.089.133.175.066.213-.051.076-.26.143-.522.213-.785z" fill="#EFF3E9"/><path d="M11.183 35.199c-.092.525.16.968.408 1.804.254-.772.4-1.225.547-1.674-.274-.358-.582-.478-.955-.13z" fill="#9E8CBC"/><path d="M9.029 35.781l.659 1.9c.178.094.299.088.299-.156-.099-1.082-.194-2.164-.293-3.25-.172-.076-.318-.098-.245.165l-.42 1.341z" fill="#F8FAF3"/><path d="M9.987 37.522l-.299.155c.057.452.251.876.557 1.216l.105-.24c-.105-.38-.092-.802-.363-1.13z" fill="#E2E9D0"/><path d="M9.45 34.436c.082-.054.165-.108.244-.165.029-.316.057-.633.09-.974-.287.1-.3.38-.402.598l.067.541z" fill="#FAEBED"/><path d="M19.319 5.945a1.787 1.787 0 00-.255 1.124c.72-.722 1.381-1.355 2.043-2.022l.423-.633c-.716-.092-1.235.256-1.693.743a1.667 1.667 0 00-.518.788z" fill="#F7F9F2"/><path d="M19.942 5.398c.458-.44.925-.867 1.59-.984l-.152-.282a1.224 1.224 0 01-1.225-.105c-.178.095-.36.18-.541.273l-.28.633c-.111.572.239.535.608.465z" fill="#BFC6A1"/><path d="M24.444 3.183l-.9.456-.379.316c-.143.215-.063.317.175.317l2.431-.732a.174.174 0 00.085-.224.174.174 0 00-.053-.07 1.094 1.094 0 00-1.359-.063z" fill="#F7F9F2"/><path d="M23.328 4.294a4.884 4.884 0 00-.175-.317l-.563.282-.637.582.096.165 1.279-.712z" fill="#E9EEDF"/><path d="M25.854 3.303a5.504 5.504 0 00-.08.237c.458-.041.935 0 1.352-.26l-1.174-.139c-.067 0-.105.035-.111.08-.007.044-.003.079.013.082z" fill="#F0E1D2"/><path d="M28.081 3.392c.092-.073.185-.146.274-.222l-.44-.133-.804.247.97.108z" fill="#F7E9D8"/><path d="M28.237 1.4a.873.873 0 00-.767-.727l-1.864 1.762c1.12-.367 2.258.409 2.63-1.035z" fill="#F4898B"/><path d="M25.853 3.303a.288.288 0 01.099-.162c-.582-.446-.598-1.117-.703-1.753-.659.263-.78.886-.98 1.456.06.11.118.221.175.332l1.41.127z" fill="#AEB97E"/><path d="M17.33 7.297a6.457 6.457 0 011.397-1.835c0-.548-.127-.95-.665-.361a2.53 2.53 0 00-.732 2.196z" fill="#AFBB85"/><path d="M19.942 5.398c-.267-.067-.525-.146-.607-.456l-.354.405c.115.2.226.399.338.598l.623-.547z" fill="#D1D9BB"/><path d="M19.615 4.297c.267.079.636.338.54-.273l-.346-.395-.194.668z" fill="#AAB678"/><path d="M10.875 36.867a.8.8 0 00.439.909c.35-.076.41-.37.496-.633l-.935-.276z" fill="#AFBA86"/><path d="M28.549 2.759l.36.357.14-.076a.553.553 0 00.085-.595c-.035-.082-.073-.161-.108-.243-.197.151-.436.272-.477.557z" fill="#BBB68B"/><path d="M20.54 2.895a1.069 1.069 0 01-.254.965l.996-.244c.099-.595-.238-.75-.741-.721z" fill="#9A88BA"/><path d="M12.106 37.013l-.382 1.32c.182.104.318.12.277-.152.038-.39.344-.753.105-1.168z" fill="#F9FCF6"/><path d="M12.001 38.18l-.277.153c.029.208.057.417.083.632l.296-.23c-.035-.19-.07-.374-.102-.554z" fill="#E8ECDB"/><path d="M28.908 3.116c.041.462.366.633.757.737.232-.37-.372-.316-.318-.589a.317.317 0 00-.423-.161l-.016.013z" fill="#BBB68B"/><path d="M28.93 3.103l.423.161a.7.7 0 00-.22-.82c-.066.22-.133.44-.203.66z" fill="#E2B29B"/></svg>