<svg width="30" height="24" fill="none" xmlns="http://www.w3.org/2000/svg"><path d="M27.363.574H2.637c-.406 0-.786.1-1.13.264l13.434 13.435 3.011-2.894h.001L28.493.838a2.606 2.606 0 00-1.13-.265z" fill="#8E302E"/><path d="M27.363.574H2.637c-.406 0-.786.1-1.13.264l13.434 13.435 3.011-2.894h.001L28.493.838a2.606 2.606 0 00-1.13-.265z" fill="url(#paint0_linear)"/><path d="M29.736 2.082L19.817 12l9.919 9.919c.164-.344.264-.724.264-1.13V3.211c0-.406-.1-.786-.264-1.13z" fill="#8E302E"/><path d="M29.736 2.082L19.817 12l9.919 9.919c.164-.344.264-.724.264-1.13V3.211c0-.406-.1-.786-.264-1.13z" fill="url(#paint1_linear)"/><path d="M.264 2.081A2.606 2.606 0 000 3.211v17.578c0 .406.1.786.264 1.13L10.183 12 .264 2.081z" fill="#8E302E"/><path d="M.264 2.081A2.606 2.606 0 000 3.211v17.578c0 .406.1.786.264 1.13L10.183 12 .264 2.081z" fill="url(#paint2_linear)"/><path d="M18.574 13.243l-3.011 2.894a.876.876 0 01-1.243 0l-2.894-2.894-9.92 9.918c.345.165.725.265 1.13.265h24.727c.406 0 .786-.1 1.13-.264l-9.919-9.919z" fill="#8E302E"/><path d="M18.574 13.243l-3.011 2.894a.876.876 0 01-1.243 0l-2.894-2.894-9.92 9.918c.345.165.725.265 1.13.265h24.727c.406 0 .786-.1 1.13-.264l-9.919-9.919z" fill="url(#paint3_linear)"/><defs><linearGradient id="paint0_linear" x1="1.507" y1=".574" x2="29.752" y2="4.052" gradientUnits="userSpaceOnUse"><stop stop-color="#8E302E" stop-opacity="0"/><stop offset="0" stop-color="#D1504E"/><stop offset="1" stop-color="#8E302E"/></linearGradient><linearGradient id="paint1_linear" x1="19.817" y1="2.082" x2="30.625" y2="2.428" gradientUnits="userSpaceOnUse"><stop stop-color="#8E302E" stop-opacity="0"/><stop offset="0" stop-color="#D1504E"/><stop offset="1" stop-color="#8E302E"/></linearGradient><linearGradient id="paint2_linear" x1="0" y1="2.081" x2="10.808" y2="2.428" gradientUnits="userSpaceOnUse"><stop stop-color="#8E302E" stop-opacity="0"/><stop offset="0" stop-color="#D1504E"/><stop offset="1" stop-color="#8E302E"/></linearGradient><linearGradient id="paint3_linear" x1="1.507" y1="13.243" x2="29.414" y2="17.865" gradientUnits="userSpaceOnUse"><stop stop-color="#8E302E" stop-opacity="0"/><stop offset="0" stop-color="#D1504E"/><stop offset="1" stop-color="#8E302E"/></linearGradient></defs></svg>