<svg width="30" height="26" fill="none" xmlns="http://www.w3.org/2000/svg"><path d="M26.562 3.02H20v-.313A2.19 2.19 0 0017.812.52h-5.625A2.19 2.19 0 0010 2.707v.313H3.438A3.44 3.44 0 000 6.457v15.625a3.44 3.44 0 003.438 3.438h23.124A3.44 3.44 0 0030 22.082V6.457a3.44 3.44 0 00-3.438-3.437zm-9.06 2.5H12.5v-2.5h5l.001 2.5zM9.374 9.27a3.13 3.13 0 013.125 3.125 3.13 3.13 0 01-3.125 3.125 3.13 3.13 0 01-3.125-3.125 3.13 3.13 0 013.125-3.126zM15 20.831c0 .518-.42.938-.938.938H4.688a.938.938 0 01-.938-.938v-.625a3.44 3.44 0 013.438-3.438h4.374A3.44 3.44 0 0115 20.207v.625zm10.313.938h-6.875a.938.938 0 010-1.875h6.875a.938.938 0 010 1.875zm0-5h-6.875a.938.938 0 010-1.875h6.875a.938.938 0 010 1.875zm0-5h-6.875a.938.938 0 010-1.875h6.875a.938.938 0 010 1.875z" fill="#8E302E"/><path d="M26.562 3.02H20v-.313A2.19 2.19 0 0017.812.52h-5.625A2.19 2.19 0 0010 2.707v.313H3.438A3.44 3.44 0 000 6.457v15.625a3.44 3.44 0 003.438 3.438h23.124A3.44 3.44 0 0030 22.082V6.457a3.44 3.44 0 00-3.438-3.437zm-9.06 2.5H12.5v-2.5h5l.001 2.5zM9.374 9.27a3.13 3.13 0 013.125 3.125 3.13 3.13 0 01-3.125 3.125 3.13 3.13 0 01-3.125-3.125 3.13 3.13 0 013.125-3.126zM15 20.831c0 .518-.42.938-.938.938H4.688a.938.938 0 01-.938-.938v-.625a3.44 3.44 0 013.438-3.438h4.374A3.44 3.44 0 0115 20.207v.625zm10.313.938h-6.875a.938.938 0 010-1.875h6.875a.938.938 0 010 1.875zm0-5h-6.875a.938.938 0 010-1.875h6.875a.938.938 0 010 1.875zm0-5h-6.875a.938.938 0 010-1.875h6.875a.938.938 0 010 1.875z" fill="url(#paint0_linear)"/><defs><linearGradient id="paint0_linear" x1="0" y1=".52" x2="31.697" y2="2.897" gradientUnits="userSpaceOnUse"><stop stop-color="#8E302E" stop-opacity="0"/><stop offset="0" stop-color="#D1504E"/><stop offset="1" stop-color="#8E302E"/></linearGradient></defs></svg>