<svg width="23" height="23" fill="none" xmlns="http://www.w3.org/2000/svg"><path d="M11.5 0C5.159 0 0 5.159 0 11.5c0 1.98.511 3.927 1.481 5.645l-1.463 5.22a.5.5 0 00.602.62l5.448-1.349A11.507 11.507 0 0011.5 23C17.841 23 23 17.841 23 11.5S17.841 0 11.5 0zm5.785 15.558c-.246.681-1.426 1.302-1.993 1.386-.509.075-1.153.107-1.86-.116a17.303 17.303 0 01-1.683-.614c-2.962-1.263-4.896-4.207-5.044-4.402-.147-.194-1.205-1.58-1.205-3.015s.762-2.14 1.033-2.432A1.09 1.09 0 017.321 6c.197 0 .393.003.566.01.181.01.425-.068.664.501.246.584.837 2.019.91 2.165.074.146.123.316.025.511s-.147.316-.295.487c-.148.17-.31.38-.443.51-.148.146-.302.304-.13.596s.765 1.246 1.643 2.019c1.128.993 2.079 1.301 2.374 1.447.295.146.467.121.64-.073.171-.195.737-.851.934-1.143.197-.291.393-.243.665-.146.27.097 1.722.802 2.017.948.295.146.492.219.566.34.074.121.074.705-.172 1.386z" fill="#666566"/></svg>